<svg width="376" height="184" viewBox="0 0 376 184" fill="none" xmlns="http://www.w3.org/2000/svg">
<path d="M178.69 81.1865H169.636V60.3618L185.028 17.8072H194.082L209.475 60.3618V81.1865H200.42V66.5187H178.69V81.1865ZM180.32 57.4645H198.791L189.646 32.1128H189.465L180.32 57.4645ZM260.595 17.8072V26.8614H229.811V46.1468H256.974V55.201H229.811V81.1865H220.757V17.8072H260.595ZM311.716 17.8072V26.8614H280.932V43.4305H308.094V52.4847H280.932V72.1323H311.716V81.1865H271.878V17.8072H311.716ZM332.053 17.8072V72.1323H362.837V81.1865H322.998V17.8072H332.053Z" fill="white"/>
<path d="M7.56717 154.244H12.0037V158.409C12.0037 164.022 16.5308 168.549 22.1444 168.549H28.2107C34.0959 168.549 38.3514 164.656 38.3514 159.314C38.3514 144.646 8.47258 137.946 8.47258 122.373C8.47258 114.767 14.4483 109.607 23.0498 109.607H27.3053C35.3635 109.607 41.8825 116.126 41.8825 124.184V126.9H37.446V124.184C37.446 118.57 32.9189 114.043 27.3053 114.043H23.0498C16.8024 114.043 12.9091 117.303 12.9091 122.373C12.9091 134.415 42.7879 141.477 42.7879 159.314C42.7879 167.101 36.5405 172.986 28.2107 172.986H22.1444C14.0862 172.986 7.56717 166.467 7.56717 158.409V154.244ZM89.3109 109.607V114.043H58.5266V136.95H85.6892V141.387H58.5266V168.549H89.3109V172.986H54.0901V109.607H89.3109ZM105.05 172.986H100.613V152.342L115.281 109.607H121.166L135.834 152.342V172.986H131.397V155.602H105.05V172.986ZM105.683 151.165H130.763L118.721 115.944H117.725L105.683 151.165ZM147.136 154.244H151.572V158.409C151.572 164.022 156.1 168.549 161.713 168.549H167.779C173.665 168.549 177.92 164.656 177.92 159.314C177.92 144.646 148.041 137.946 148.041 122.373C148.041 114.767 154.017 109.607 162.619 109.607H166.874C174.932 109.607 181.451 116.126 181.451 124.184V126.9H177.015V124.184C177.015 118.57 172.488 114.043 166.874 114.043H162.619C156.371 114.043 152.478 117.303 152.478 122.373C152.478 134.415 182.357 141.477 182.357 159.314C182.357 167.101 176.109 172.986 167.779 172.986H161.713C153.655 172.986 147.136 166.467 147.136 158.409V154.244ZM214.936 168.459C220.188 168.459 224.443 164.113 224.443 158.861V123.641C224.443 118.299 220.278 114.043 214.936 114.043H207.693C202.351 114.043 198.095 118.299 198.095 123.641V158.861C198.095 164.113 202.441 168.459 207.693 168.459H214.936ZM193.659 158.861V123.641C193.659 115.854 199.997 109.607 207.693 109.607H214.936C222.723 109.607 228.88 115.854 228.88 123.641V158.861C228.88 166.648 222.632 172.986 214.936 172.986H207.693C199.997 172.986 193.659 166.557 193.659 158.861ZM270.966 109.607H275.403V172.986H266.167L246.248 114.043H244.618V172.986H240.182V109.607H249.417L269.336 168.549H270.966V109.607ZM333.228 109.607H368.448V114.043H353.056V168.549H368.448V172.986H333.228V168.549H348.62V114.043H333.228V109.607Z" fill="white"/>
</svg>
