<svg width="429" height="81" viewBox="0 0 429 81" fill="none" xmlns="http://www.w3.org/2000/svg">
<path d="M24.6836 3L36.3836 47.1C37.2836 50.4 35.9336 54.75 35.7836 58.2H39.9836C39.9836 54.9 38.6336 50.4 39.5336 47.1L51.8336 3H77.3336L89.7836 47.1C90.6836 50.4 89.3336 54.9 89.3336 58.2H93.3836C93.3836 54.75 91.8836 50.4 92.7836 47.1L104.634 3H128.934L102.834 78H77.3336L65.7836 22.95C65.0336 19.8 66.6836 15.3 66.6836 12H62.6336C62.6336 15.3 64.1336 19.8 63.5336 22.95L51.8336 78H26.4836L0.383594 3H24.6836ZM189.505 70.5C184.255 76.65 176.755 80.4 166.705 80.4C144.805 80.4 129.205 62.4 129.205 40.05C129.205 17.7 144.805 0.749993 166.705 0.749993C176.605 0.749993 184.105 4.2 189.505 10.05C192.505 13.35 192.655 19.65 194.005 24L198.055 22.65C196.705 18.45 193.855 13.2 193.855 8.55L194.005 3H217.555V78H194.005L193.855 71.85C193.855 67.35 196.705 62.1 197.905 57.75L194.005 56.55C192.655 60.9 192.505 67.05 189.505 70.5ZM152.755 40.05C152.755 49.95 160.105 58.5 168.655 58.5C177.205 58.5 184.855 50.25 184.855 40.05C184.855 30.3 179.305 22.65 168.655 22.65C160.105 22.65 152.755 30 152.755 40.05ZM278.445 70.5C273.195 76.65 265.695 80.4 255.645 80.4C233.745 80.4 218.145 62.4 218.145 40.05C218.145 17.7 233.745 0.749993 255.645 0.749993C265.545 0.749993 273.045 4.2 278.445 10.05C281.445 13.35 281.595 19.65 282.945 24L286.995 22.65C285.645 18.45 282.795 13.2 282.795 8.55L282.945 3H306.495V78H282.945L282.795 71.85C282.795 67.35 285.645 62.1 286.845 57.75L282.945 56.55C281.595 60.9 281.445 67.05 278.445 70.5ZM241.695 40.05C241.695 49.95 249.045 58.5 257.595 58.5C266.145 58.5 273.795 50.25 273.795 40.05C273.795 30.3 268.245 22.65 257.595 22.65C249.045 22.65 241.695 30 241.695 40.05ZM367.384 70.5C362.134 76.65 354.634 80.4 344.584 80.4C322.684 80.4 307.084 62.4 307.084 40.05C307.084 17.7 322.684 0.749993 344.584 0.749993C354.484 0.749993 361.984 4.2 367.384 10.05C370.384 13.35 370.534 19.65 371.884 24L375.934 22.65C374.584 18.45 371.734 13.2 371.734 8.55L371.884 3H395.434V78H371.884L371.734 71.85C371.734 67.35 374.584 62.1 375.784 57.75L371.884 56.55C370.534 60.9 370.384 67.05 367.384 70.5ZM330.634 40.05C330.634 49.95 337.984 58.5 346.534 58.5C355.084 58.5 362.734 50.25 362.734 40.05C362.734 30.3 357.184 22.65 346.534 22.65C337.984 22.65 330.634 30 330.634 40.05ZM407.461 78V57.6H428.161V78H407.461Z" fill="white"/>
</svg>
