<svg width="637" height="325" viewBox="0 0 637 325" fill="none" xmlns="http://www.w3.org/2000/svg">
<mask id="path-1-outside-1_3_391" maskUnits="userSpaceOnUse" x="5" y="91" width="627" height="149" fill="black">
<rect fill="white" x="5" y="91" width="627" height="149"/>
<path d="M72.5539 237.5V194.15C72.5539 189.65 75.4039 184.55 76.9039 180.2L73.0039 178.85C71.5039 183.05 70.9039 189.35 67.7539 192.5C62.3539 198.05 54.7039 202.25 44.8039 202.25C23.8039 202.25 8.05391 183.35 7.30391 162.35C6.40391 140.15 22.4539 122.6 44.9539 122.6C54.8539 122.6 62.5039 126.05 68.0539 131.75C71.0539 135.05 71.5039 141.35 72.8539 145.55L76.7539 144.35C75.4039 140 72.5539 134.9 72.5539 130.4V125L96.1039 125.15V237.65L72.5539 237.5ZM49.0039 144.5C37.9039 144.5 30.8539 151.85 30.8539 161.9C30.8539 171.95 37.9039 180.35 49.0039 180.35C60.1039 180.35 66.8539 171.95 66.8539 161.9C66.8539 151.85 60.1039 144.5 49.0039 144.5ZM155.15 196.1C149.6 201.35 144.2 202.25 133.55 202.25C118.1 202.25 103.1 193.4 103.1 176.45V125H126.65V161.75C126.65 177.2 134 181.85 144.05 181.85C155 181.85 159.95 175.55 159.95 161.75V125H183.65V200H159.95L160.1 197.9C160.1 193.25 163.25 188 164.9 183.65L161.15 182.15C159.35 186.5 158.6 192.8 155.15 196.1ZM238.882 202.4C205.882 202.4 187.882 184.4 187.882 162.05C187.882 139.7 207.382 122.75 234.982 122.75C263.332 122.75 280.882 141.35 280.732 162.35C280.732 164 280.732 167.6 280.732 168.95L217.432 168.8C217.432 175.4 223.732 182.9 236.632 182.9C244.882 182.9 249.982 180.65 251.482 178.55H279.082C276.832 186.35 264.682 202.4 238.882 202.4ZM217.432 155H252.532C252.532 146.3 246.082 140.3 235.582 140.3C224.932 140.3 217.432 147.05 217.432 155ZM359.488 173.45C359.488 186.95 347.788 202.4 320.488 202.4C288.688 202.4 281.938 183.05 281.938 171.5H305.638C305.638 173.9 308.938 180.35 323.788 180.35C334.588 180.35 335.488 175.7 335.488 174.8C335.488 165.05 282.088 170.15 282.088 145.4C282.088 133.7 292.288 122.75 319.438 122.75C352.738 122.75 358.288 140.15 358.137 148.55H334.438C334.438 144.95 329.488 141.05 317.638 141.05C311.938 141.05 305.638 141.65 305.638 144.95C305.638 152.15 359.488 143.45 359.488 173.45ZM375.048 170.15V144.8H360.048V124.85H375.048V93.2H398.598V124.85H418.098V144.8H398.598V170.15C398.598 176.3 401.448 178.1 408.498 178.1H417.348V200H394.998C378.348 200 375.048 182.75 375.048 170.15ZM423.14 118.25V95H448.19V118.25H423.14ZM424.04 200V125H447.44V200H424.04ZM455.945 162.65C455.945 137.3 473.495 122.75 501.545 122.75C529.445 122.75 546.995 138.95 546.995 162.65C546.995 186.35 529.445 202.4 501.545 202.4C473.495 202.4 455.945 188 455.945 162.65ZM481.445 162.65C481.445 172.1 486.095 179.45 501.395 179.45C516.695 179.45 521.495 172.1 521.495 162.65C521.495 153.2 516.695 145.55 501.395 145.55C486.095 145.55 481.445 153.2 481.445 162.65ZM581.829 128.6C587.379 124.4 594.279 122.75 603.129 122.75C618.279 122.75 629.829 131.45 629.829 148.55V200H606.129V165.65C606.129 152.6 601.779 146.9 592.479 146.9C582.279 146.9 573.879 152.75 573.879 165.65V200H550.179V125H573.879V125.6C573.879 132.8 570.129 141.2 567.579 147.95L571.479 149.45C574.029 142.7 576.129 132.95 581.829 128.6Z"/>
</mask>
<path d="M72.5539 237.5H70.5539V239.487L72.5412 239.5L72.5539 237.5ZM76.9039 180.2L78.7947 180.852L79.4459 178.963L77.5581 178.31L76.9039 180.2ZM73.0039 178.85L73.6581 176.96L71.7866 176.312L71.1204 178.177L73.0039 178.85ZM67.7539 192.5L66.3397 191.086L66.33 191.095L66.3205 191.105L67.7539 192.5ZM7.30391 162.35L9.30266 162.279L9.30227 162.269L7.30391 162.35ZM68.0539 131.75L69.5338 130.405L69.5107 130.379L69.4869 130.355L68.0539 131.75ZM72.8539 145.55L70.9499 146.162L71.5543 148.042L73.4421 147.462L72.8539 145.55ZM76.7539 144.35L77.3421 146.262L79.2583 145.672L78.664 143.757L76.7539 144.35ZM72.5539 125L72.5667 123L70.5539 122.987V125H72.5539ZM96.1039 125.15H98.1039V123.163L96.1167 123.15L96.1039 125.15ZM96.1039 237.65L96.0912 239.65L98.1039 239.663V237.65H96.1039ZM74.5539 237.5V194.15H70.5539V237.5H74.5539ZM74.5539 194.15C74.5539 192.279 75.1544 190.162 76.0372 187.826C76.4739 186.67 76.9557 185.52 77.4405 184.344C77.9184 183.185 78.3984 182.001 78.7947 180.852L75.0132 179.548C74.6595 180.574 74.2207 181.659 73.7423 182.82C73.2709 183.964 72.7589 185.186 72.2956 186.412C71.3784 188.838 70.5539 191.521 70.5539 194.15H74.5539ZM77.5581 178.31L73.6581 176.96L72.3497 180.74L76.2497 182.09L77.5581 178.31ZM71.1204 178.177C70.7116 179.322 70.3735 180.582 70.0568 181.814C69.7328 183.074 69.4317 184.301 69.0785 185.506C68.3581 187.963 67.5318 189.894 66.3397 191.086L69.1681 193.914C71.1261 191.956 72.1747 189.162 72.9168 186.632C73.2949 185.342 73.6219 184.011 73.9307 182.81C74.2468 181.58 74.5462 180.478 74.8874 179.523L71.1204 178.177ZM66.3205 191.105C61.2382 196.329 54.0851 200.25 44.8039 200.25V204.25C55.3227 204.25 63.4696 199.771 69.1874 193.895L66.3205 191.105ZM44.8039 200.25C25.1213 200.25 10.0234 182.46 9.30263 162.279L5.30518 162.421C6.0844 184.24 22.4865 204.25 44.8039 204.25V200.25ZM9.30227 162.269C8.44639 141.157 23.6368 124.6 44.9539 124.6V120.6C21.271 120.6 4.36143 139.143 5.30555 162.431L9.30227 162.269ZM44.9539 124.6C54.3449 124.6 61.4683 127.853 66.621 133.145L69.4869 130.355C63.5395 124.247 55.3629 120.6 44.9539 120.6V124.6ZM66.574 133.095C67.7234 134.36 68.4911 136.343 69.1376 138.818C69.4548 140.032 69.7203 141.266 70.0056 142.527C70.2846 143.76 70.5825 145.019 70.9499 146.162L74.758 144.938C74.4503 143.981 74.1858 142.877 73.907 141.645C73.6344 140.44 73.3468 139.105 73.0077 137.807C72.3417 135.257 71.3844 132.44 69.5338 130.405L66.574 133.095ZM73.4421 147.462L77.3421 146.262L76.1657 142.438L72.2657 143.638L73.4421 147.462ZM78.664 143.757C77.9743 141.535 76.8338 138.927 76.0233 136.737C75.1552 134.391 74.5539 132.273 74.5539 130.4H70.5539C70.5539 133.027 71.3776 135.709 72.272 138.125C73.224 140.698 74.1835 142.815 74.8438 144.943L78.664 143.757ZM74.5539 130.4V125H70.5539V130.4H74.5539ZM72.5412 127L96.0912 127.15L96.1167 123.15L72.5667 123L72.5412 127ZM94.1039 125.15V237.65H98.1039V125.15H94.1039ZM96.1167 235.65L72.5667 235.5L72.5412 239.5L96.0912 239.65L96.1167 235.65ZM49.0039 142.5C43.0019 142.5 37.9375 144.496 34.365 148.004C30.793 151.513 28.8539 156.396 28.8539 161.9H32.8539C32.8539 157.354 34.4398 153.537 37.1678 150.858C39.8953 148.179 43.9059 146.5 49.0039 146.5V142.5ZM28.8539 161.9C28.8539 172.933 36.6817 182.35 49.0039 182.35V178.35C39.1261 178.35 32.8539 170.967 32.8539 161.9H28.8539ZM49.0039 182.35C55.0912 182.35 60.0967 180.032 63.5661 176.245C67.0161 172.479 68.8539 167.367 68.8539 161.9H64.8539C64.8539 166.483 63.3168 170.596 60.6168 173.543C57.9362 176.468 54.0166 178.35 49.0039 178.35V182.35ZM68.8539 161.9C68.8539 156.421 67.0066 151.539 63.5099 148.021C60.008 144.498 55.0087 142.5 49.0039 142.5V146.5C54.0992 146.5 58.0248 148.177 60.6729 150.841C63.3262 153.511 64.8539 157.329 64.8539 161.9H68.8539ZM155.15 196.1L156.524 197.553L156.532 197.545L155.15 196.1ZM103.1 125V123H101.1V125H103.1ZM126.65 125H128.65V123H126.65V125ZM159.95 125V123H157.95V125H159.95ZM183.65 125H185.65V123H183.65V125ZM183.65 200V202H185.65V200H183.65ZM159.95 200L157.955 199.858L157.802 202H159.95V200ZM160.1 197.9L162.095 198.042L162.1 197.971V197.9H160.1ZM164.9 183.65L166.77 184.359L167.467 182.523L165.643 181.793L164.9 183.65ZM161.15 182.15L161.893 180.293L160.058 179.559L159.302 181.385L161.15 182.15ZM153.776 194.647C151.228 197.057 148.784 198.418 145.757 199.209C142.649 200.02 138.859 200.25 133.55 200.25V204.25C138.891 204.25 143.126 204.03 146.768 203.079C150.491 202.107 153.522 200.393 156.524 197.553L153.776 194.647ZM133.55 200.25C126.178 200.25 119.015 198.134 113.744 194.116C108.525 190.137 105.1 184.26 105.1 176.45H101.1C101.1 185.59 105.175 192.613 111.319 197.297C117.41 201.941 125.472 204.25 133.55 204.25V200.25ZM105.1 176.45V125H101.1V176.45H105.1ZM103.1 127H126.65V123H103.1V127ZM124.65 125V161.75H128.65V125H124.65ZM124.65 161.75C124.65 169.756 126.552 175.393 130.167 179.008C133.785 182.626 138.751 183.85 144.05 183.85V179.85C139.299 179.85 135.565 178.749 132.995 176.18C130.423 173.607 128.65 169.194 128.65 161.75H124.65ZM144.05 183.85C149.919 183.85 154.573 182.143 157.676 178.215C160.696 174.391 161.95 168.819 161.95 161.75H157.95C157.95 168.481 156.729 172.959 154.537 175.735C152.427 178.407 149.131 179.85 144.05 179.85V183.85ZM161.95 161.75V125H157.95V161.75H161.95ZM159.95 127H183.65V123H159.95V127ZM181.65 125V200H185.65V125H181.65ZM183.65 198H159.95V202H183.65V198ZM161.945 200.142L162.095 198.042L158.105 197.757L157.955 199.858L161.945 200.142ZM162.1 197.9C162.1 195.981 162.76 193.806 163.733 191.418C164.214 190.238 164.746 189.066 165.279 187.876C165.805 186.703 166.334 185.509 166.77 184.359L163.03 182.941C162.641 183.966 162.158 185.06 161.629 186.24C161.108 187.403 160.542 188.649 160.029 189.907C159.015 192.394 158.1 195.169 158.1 197.9H162.1ZM165.643 181.793L161.893 180.293L160.407 184.007L164.157 185.507L165.643 181.793ZM159.302 181.385C158.811 182.572 158.403 183.864 158.023 185.124C157.635 186.416 157.281 187.658 156.871 188.886C156.044 191.369 155.117 193.364 153.768 194.655L156.532 197.545C158.633 195.536 159.806 192.731 160.666 190.151C161.1 188.848 161.487 187.494 161.853 186.277C162.229 185.03 162.589 183.903 162.998 182.915L159.302 181.385ZM280.732 162.35L278.732 162.336L278.732 162.343V162.35H280.732ZM280.732 168.95L280.727 170.95L282.732 170.955V168.95H280.732ZM217.432 168.8L217.436 166.8L215.432 166.795V168.8H217.432ZM251.482 178.55V176.55H250.452L249.854 177.388L251.482 178.55ZM279.082 178.55L281.003 179.104L281.74 176.55H279.082V178.55ZM217.432 155H215.432V157H217.432V155ZM252.532 155V157H254.532V155H252.532ZM238.882 200.4C222.736 200.4 210.481 195.999 202.298 189.079C194.137 182.178 189.882 172.656 189.882 162.05H185.882C185.882 173.794 190.626 184.447 199.715 192.133C208.782 199.801 222.027 204.4 238.882 204.4V200.4ZM189.882 162.05C189.882 141.108 208.156 124.75 234.982 124.75V120.75C206.607 120.75 185.882 138.292 185.882 162.05H189.882ZM234.982 124.75C262.398 124.75 278.873 142.614 278.732 162.336L282.732 162.364C282.891 140.086 264.266 120.75 234.982 120.75V124.75ZM278.732 162.35C278.732 162.353 278.732 162.356 278.732 162.36C278.732 162.363 278.732 162.366 278.732 162.369C278.732 162.373 278.732 162.376 278.732 162.379C278.732 162.382 278.732 162.386 278.732 162.389C278.732 162.392 278.732 162.396 278.732 162.399C278.732 162.402 278.732 162.405 278.732 162.409C278.732 162.412 278.732 162.415 278.732 162.419C278.732 162.422 278.732 162.425 278.732 162.429C278.732 162.432 278.732 162.435 278.732 162.439C278.732 162.442 278.732 162.446 278.732 162.449C278.732 162.452 278.732 162.456 278.732 162.459C278.732 162.462 278.732 162.466 278.732 162.469C278.732 162.473 278.732 162.476 278.732 162.479C278.732 162.483 278.732 162.486 278.732 162.49C278.732 162.493 278.732 162.496 278.732 162.5C278.732 162.503 278.732 162.507 278.732 162.51C278.732 162.514 278.732 162.517 278.732 162.521C278.732 162.524 278.732 162.528 278.732 162.531C278.732 162.535 278.732 162.538 278.732 162.542C278.732 162.545 278.732 162.549 278.732 162.552C278.732 162.556 278.732 162.559 278.732 162.563C278.732 162.566 278.732 162.57 278.732 162.573C278.732 162.577 278.732 162.58 278.732 162.584C278.732 162.587 278.732 162.591 278.732 162.594C278.732 162.598 278.732 162.602 278.732 162.605C278.732 162.609 278.732 162.612 278.732 162.616C278.732 162.619 278.732 162.623 278.732 162.627C278.732 162.63 278.732 162.634 278.732 162.638C278.732 162.641 278.732 162.645 278.732 162.648C278.732 162.652 278.732 162.656 278.732 162.659C278.732 162.663 278.732 162.667 278.732 162.67C278.732 162.674 278.732 162.678 278.732 162.681C278.732 162.685 278.732 162.689 278.732 162.692C278.732 162.696 278.732 162.7 278.732 162.703C278.732 162.707 278.732 162.711 278.732 162.714C278.732 162.718 278.732 162.722 278.732 162.726C278.732 162.729 278.732 162.733 278.732 162.737C278.732 162.74 278.732 162.744 278.732 162.748C278.732 162.752 278.732 162.755 278.732 162.759C278.732 162.763 278.732 162.767 278.732 162.77C278.732 162.774 278.732 162.778 278.732 162.782C278.732 162.786 278.732 162.789 278.732 162.793C278.732 162.797 278.732 162.801 278.732 162.804C278.732 162.808 278.732 162.812 278.732 162.816C278.732 162.82 278.732 162.824 278.732 162.827C278.732 162.831 278.732 162.835 278.732 162.839C278.732 162.843 278.732 162.847 278.732 162.85C278.732 162.854 278.732 162.858 278.732 162.862C278.732 162.866 278.732 162.87 278.732 162.874C278.732 162.878 278.732 162.881 278.732 162.885C278.732 162.889 278.732 162.893 278.732 162.897C278.732 162.901 278.732 162.905 278.732 162.909C278.732 162.913 278.732 162.917 278.732 162.92C278.732 162.924 278.732 162.928 278.732 162.932C278.732 162.936 278.732 162.94 278.732 162.944C278.732 162.948 278.732 162.952 278.732 162.956C278.732 162.96 278.732 162.964 278.732 162.968C278.732 162.972 278.732 162.976 278.732 162.98C278.732 162.984 278.732 162.988 278.732 162.992C278.732 162.996 278.732 163 278.732 163.004C278.732 163.008 278.732 163.012 278.732 163.016C278.732 163.02 278.732 163.024 278.732 163.028C278.732 163.032 278.732 163.036 278.732 163.04C278.732 163.044 278.732 163.048 278.732 163.052C278.732 163.056 278.732 163.06 278.732 163.064C278.732 163.068 278.732 163.072 278.732 163.076C278.732 163.08 278.732 163.084 278.732 163.089C278.732 163.093 278.732 163.097 278.732 163.101C278.732 163.105 278.732 163.109 278.732 163.113C278.732 163.117 278.732 163.121 278.732 163.125C278.732 163.129 278.732 163.134 278.732 163.138C278.732 163.142 278.732 163.146 278.732 163.15C278.732 163.154 278.732 163.158 278.732 163.163C278.732 163.167 278.732 163.171 278.732 163.175C278.732 163.179 278.732 163.183 278.732 163.187C278.732 163.192 278.732 163.196 278.732 163.2C278.732 163.204 278.732 163.208 278.732 163.212C278.732 163.217 278.732 163.221 278.732 163.225C278.732 163.229 278.732 163.233 278.732 163.238C278.732 163.242 278.732 163.246 278.732 163.25C278.732 163.254 278.732 163.259 278.732 163.263C278.732 163.267 278.732 163.271 278.732 163.276C278.732 163.28 278.732 163.284 278.732 163.288C278.732 163.293 278.732 163.297 278.732 163.301C278.732 163.305 278.732 163.31 278.732 163.314C278.732 163.318 278.732 163.322 278.732 163.327C278.732 163.331 278.732 163.335 278.732 163.339C278.732 163.344 278.732 163.348 278.732 163.352C278.732 163.357 278.732 163.361 278.732 163.365C278.732 163.369 278.732 163.374 278.732 163.378C278.732 163.382 278.732 163.387 278.732 163.391C278.732 163.395 278.732 163.4 278.732 163.404C278.732 163.408 278.732 163.413 278.732 163.417C278.732 163.421 278.732 163.426 278.732 163.43C278.732 163.434 278.732 163.439 278.732 163.443C278.732 163.447 278.732 163.452 278.732 163.456C278.732 163.46 278.732 163.465 278.732 163.469C278.732 163.474 278.732 163.478 278.732 163.482C278.732 163.487 278.732 163.491 278.732 163.495C278.732 163.5 278.732 163.504 278.732 163.509C278.732 163.513 278.732 163.517 278.732 163.522C278.732 163.526 278.732 163.531 278.732 163.535C278.732 163.54 278.732 163.544 278.732 163.548C278.732 163.553 278.732 163.557 278.732 163.562C278.732 163.566 278.732 163.571 278.732 163.575C278.732 163.579 278.732 163.584 278.732 163.588C278.732 163.593 278.732 163.597 278.732 163.602C278.732 163.606 278.732 163.611 278.732 163.615C278.732 163.619 278.732 163.624 278.732 163.628C278.732 163.633 278.732 163.637 278.732 163.642C278.732 163.646 278.732 163.651 278.732 163.655C278.732 163.66 278.732 163.664 278.732 163.669C278.732 163.673 278.732 163.678 278.732 163.682C278.732 163.687 278.732 163.691 278.732 163.696C278.732 163.7 278.732 163.705 278.732 163.709C278.732 163.714 278.732 163.718 278.732 163.723C278.732 163.727 278.732 163.732 278.732 163.737C278.732 163.741 278.732 163.746 278.732 163.75C278.732 163.755 278.732 163.759 278.732 163.764C278.732 163.768 278.732 163.773 278.732 163.777C278.732 163.782 278.732 163.787 278.732 163.791C278.732 163.796 278.732 163.8 278.732 163.805C278.732 163.809 278.732 163.814 278.732 163.819C278.732 163.823 278.732 163.828 278.732 163.832C278.732 163.837 278.732 163.841 278.732 163.846C278.732 163.851 278.732 163.855 278.732 163.86C278.732 163.864 278.732 163.869 278.732 163.874C278.732 163.878 278.732 163.883 278.732 163.887C278.732 163.892 278.732 163.897 278.732 163.901C278.732 163.906 278.732 163.911 278.732 163.915C278.732 163.92 278.732 163.924 278.732 163.929C278.732 163.934 278.732 163.938 278.732 163.943C278.732 163.948 278.732 163.952 278.732 163.957C278.732 163.962 278.732 163.966 278.732 163.971C278.732 163.976 278.732 163.98 278.732 163.985C278.732 163.99 278.732 163.994 278.732 163.999C278.732 164.004 278.732 164.008 278.732 164.013C278.732 164.018 278.732 164.022 278.732 164.027C278.732 164.032 278.732 164.036 278.732 164.041C278.732 164.046 278.732 164.05 278.732 164.055C278.732 164.06 278.732 164.064 278.732 164.069C278.732 164.074 278.732 164.079 278.732 164.083C278.732 164.088 278.732 164.093 278.732 164.097C278.732 164.102 278.732 164.107 278.732 164.111C278.732 164.116 278.732 164.121 278.732 164.126C278.732 164.13 278.732 164.135 278.732 164.14C278.732 164.145 278.732 164.149 278.732 164.154C278.732 164.159 278.732 164.163 278.732 164.168C278.732 164.173 278.732 164.178 278.732 164.182C278.732 164.187 278.732 164.192 278.732 164.197C278.732 164.201 278.732 164.206 278.732 164.211C278.732 164.216 278.732 164.22 278.732 164.225C278.732 164.23 278.732 164.235 278.732 164.24C278.732 164.244 278.732 164.249 278.732 164.254C278.732 164.259 278.732 164.263 278.732 164.268C278.732 164.273 278.732 164.278 278.732 164.282C278.732 164.287 278.732 164.292 278.732 164.297C278.732 164.302 278.732 164.306 278.732 164.311C278.732 164.316 278.732 164.321 278.732 164.326C278.732 164.33 278.732 164.335 278.732 164.34C278.732 164.345 278.732 164.35 278.732 164.354C278.732 164.359 278.732 164.364 278.732 164.369C278.732 164.374 278.732 164.378 278.732 164.383C278.732 164.388 278.732 164.393 278.732 164.398C278.732 164.403 278.732 164.407 278.732 164.412C278.732 164.417 278.732 164.422 278.732 164.427C278.732 164.432 278.732 164.436 278.732 164.441C278.732 164.446 278.732 164.451 278.732 164.456C278.732 164.461 278.732 164.465 278.732 164.47C278.732 164.475 278.732 164.48 278.732 164.485C278.732 164.49 278.732 164.494 278.732 164.499C278.732 164.504 278.732 164.509 278.732 164.514C278.732 164.519 278.732 164.524 278.732 164.528C278.732 164.533 278.732 164.538 278.732 164.543C278.732 164.548 278.732 164.553 278.732 164.558C278.732 164.562 278.732 164.567 278.732 164.572C278.732 164.577 278.732 164.582 278.732 164.587C278.732 164.592 278.732 164.597 278.732 164.601C278.732 164.606 278.732 164.611 278.732 164.616C278.732 164.621 278.732 164.626 278.732 164.631C278.732 164.636 278.732 164.641 278.732 164.645C278.732 164.65 278.732 164.655 278.732 164.66C278.732 164.665 278.732 164.67 278.732 164.675C278.732 164.68 278.732 164.685 278.732 164.689C278.732 164.694 278.732 164.699 278.732 164.704C278.732 164.709 278.732 164.714 278.732 164.719C278.732 164.724 278.732 164.729 278.732 164.734C278.732 164.739 278.732 164.743 278.732 164.748C278.732 164.753 278.732 164.758 278.732 164.763C278.732 164.768 278.732 164.773 278.732 164.778C278.732 164.783 278.732 164.788 278.732 164.793C278.732 164.798 278.732 164.802 278.732 164.807C278.732 164.812 278.732 164.817 278.732 164.822C278.732 164.827 278.732 164.832 278.732 164.837C278.732 164.842 278.732 164.847 278.732 164.852C278.732 164.857 278.732 164.862 278.732 164.867C278.732 164.872 278.732 164.876 278.732 164.881C278.732 164.886 278.732 164.891 278.732 164.896C278.732 164.901 278.732 164.906 278.732 164.911C278.732 164.916 278.732 164.921 278.732 164.926C278.732 164.931 278.732 164.936 278.732 164.941C278.732 164.946 278.732 164.951 278.732 164.956C278.732 164.961 278.732 164.965 278.732 164.97C278.732 164.975 278.732 164.98 278.732 164.985C278.732 164.99 278.732 164.995 278.732 165C278.732 165.005 278.732 165.01 278.732 165.015C278.732 165.02 278.732 165.025 278.732 165.03C278.732 165.035 278.732 165.04 278.732 165.045C278.732 165.05 278.732 165.055 278.732 165.06C278.732 165.065 278.732 165.07 278.732 165.075C278.732 165.08 278.732 165.085 278.732 165.09C278.732 165.094 278.732 165.099 278.732 165.104C278.732 165.109 278.732 165.114 278.732 165.119C278.732 165.124 278.732 165.129 278.732 165.134C278.732 165.139 278.732 165.144 278.732 165.149C278.732 165.154 278.732 165.159 278.732 165.164C278.732 165.169 278.732 165.174 278.732 165.179C278.732 165.184 278.732 165.189 278.732 165.194C278.732 165.199 278.732 165.204 278.732 165.209C278.732 165.214 278.732 165.219 278.732 165.224C278.732 165.229 278.732 165.234 278.732 165.239C278.732 165.244 278.732 165.249 278.732 165.254C278.732 165.259 278.732 165.264 278.732 165.269C278.732 165.274 278.732 165.279 278.732 165.284C278.732 165.289 278.732 165.294 278.732 165.299C278.732 165.304 278.732 165.309 278.732 165.314C278.732 165.319 278.732 165.324 278.732 165.329C278.732 165.334 278.732 165.338 278.732 165.343C278.732 165.348 278.732 165.353 278.732 165.358C278.732 165.363 278.732 165.368 278.732 165.373C278.732 165.378 278.732 165.383 278.732 165.388C278.732 165.393 278.732 165.398 278.732 165.403C278.732 165.408 278.732 165.413 278.732 165.418C278.732 165.423 278.732 165.428 278.732 165.433C278.732 165.438 278.732 165.443 278.732 165.448C278.732 165.453 278.732 165.458 278.732 165.463C278.732 165.468 278.732 165.473 278.732 165.478C278.732 165.483 278.732 165.488 278.732 165.493C278.732 165.498 278.732 165.503 278.732 165.508C278.732 165.513 278.732 165.518 278.732 165.523C278.732 165.528 278.732 165.533 278.732 165.538C278.732 165.543 278.732 165.548 278.732 165.553C278.732 165.558 278.732 165.563 278.732 165.568C278.732 165.573 278.732 165.578 278.732 165.583C278.732 165.588 278.732 165.593 278.732 165.598C278.732 165.603 278.732 165.608 278.732 165.613C278.732 165.618 278.732 165.623 278.732 165.628C278.732 165.633 278.732 165.638 278.732 165.643C278.732 165.648 278.732 165.653 278.732 165.658C278.732 165.663 278.732 165.668 278.732 165.673C278.732 165.678 278.732 165.683 278.732 165.688C278.732 165.693 278.732 165.698 278.732 165.703C278.732 165.708 278.732 165.713 278.732 165.718C278.732 165.723 278.732 165.728 278.732 165.733C278.732 165.738 278.732 165.743 278.732 165.748C278.732 165.753 278.732 165.758 278.732 165.762C278.732 165.767 278.732 165.772 278.732 165.777C278.732 165.782 278.732 165.787 278.732 165.792C278.732 165.797 278.732 165.802 278.732 165.807C278.732 165.812 278.732 165.817 278.732 165.822C278.732 165.827 278.732 165.832 278.732 165.837C278.732 165.842 278.732 165.847 278.732 165.852C278.732 165.857 278.732 165.862 278.732 165.867C278.732 165.872 278.732 165.877 278.732 165.882C278.732 165.887 278.732 165.892 278.732 165.897C278.732 165.902 278.732 165.907 278.732 165.912C278.732 165.917 278.732 165.922 278.732 165.927C278.732 165.932 278.732 165.937 278.732 165.941C278.732 165.946 278.732 165.951 278.732 165.956C278.732 165.961 278.732 165.966 278.732 165.971C278.732 165.976 278.732 165.981 278.732 165.986C278.732 165.991 278.732 165.996 278.732 166.001C278.732 166.006 278.732 166.011 278.732 166.016C278.732 166.021 278.732 166.026 278.732 166.031C278.732 166.036 278.732 166.041 278.732 166.046C278.732 166.05 278.732 166.055 278.732 166.06C278.732 166.065 278.732 166.07 278.732 166.075C278.732 166.08 278.732 166.085 278.732 166.09C278.732 166.095 278.732 166.1 278.732 166.105C278.732 166.11 278.732 166.115 278.732 166.12C278.732 166.125 278.732 166.13 278.732 166.134C278.732 166.139 278.732 166.144 278.732 166.149C278.732 166.154 278.732 166.159 278.732 166.164C278.732 166.169 278.732 166.174 278.732 166.179C278.732 166.184 278.732 166.189 278.732 166.194C278.732 166.199 278.732 166.203 278.732 166.208C278.732 166.213 278.732 166.218 278.732 166.223C278.732 166.228 278.732 166.233 278.732 166.238C278.732 166.243 278.732 166.248 278.732 166.253C278.732 166.257 278.732 166.262 278.732 166.267C278.732 166.272 278.732 166.277 278.732 166.282C278.732 166.287 278.732 166.292 278.732 166.297C278.732 166.302 278.732 166.307 278.732 166.311C278.732 166.316 278.732 166.321 278.732 166.326C278.732 166.331 278.732 166.336 278.732 166.341C278.732 166.346 278.732 166.351 278.732 166.355C278.732 166.36 278.732 166.365 278.732 166.37C278.732 166.375 278.732 166.38 278.732 166.385C278.732 166.39 278.732 166.394 278.732 166.399C278.732 166.404 278.732 166.409 278.732 166.414C278.732 166.419 278.732 166.424 278.732 166.429C278.732 166.433 278.732 166.438 278.732 166.443C278.732 166.448 278.732 166.453 278.732 166.458C278.732 166.463 278.732 166.467 278.732 166.472C278.732 166.477 278.732 166.482 278.732 166.487C278.732 166.492 278.732 166.497 278.732 166.501C278.732 166.506 278.732 166.511 278.732 166.516C278.732 166.521 278.732 166.526 278.732 166.53C278.732 166.535 278.732 166.54 278.732 166.545C278.732 166.55 278.732 166.555 278.732 166.559C278.732 166.564 278.732 166.569 278.732 166.574C278.732 166.579 278.732 166.584 278.732 166.588C278.732 166.593 278.732 166.598 278.732 166.603C278.732 166.608 278.732 166.612 278.732 166.617C278.732 166.622 278.732 166.627 278.732 166.632C278.732 166.636 278.732 166.641 278.732 166.646C278.732 166.651 278.732 166.656 278.732 166.66C278.732 166.665 278.732 166.67 278.732 166.675C278.732 166.68 278.732 166.684 278.732 166.689C278.732 166.694 278.732 166.699 278.732 166.704C278.732 166.708 278.732 166.713 278.732 166.718C278.732 166.723 278.732 166.727 278.732 166.732C278.732 166.737 278.732 166.742 278.732 166.746C278.732 166.751 278.732 166.756 278.732 166.761C278.732 166.765 278.732 166.77 278.732 166.775C278.732 166.78 278.732 166.785 278.732 166.789C278.732 166.794 278.732 166.799 278.732 166.803C278.732 166.808 278.732 166.813 278.732 166.818C278.732 166.822 278.732 166.827 278.732 166.832C278.732 166.837 278.732 166.841 278.732 166.846C278.732 166.851 278.732 166.856 278.732 166.86C278.732 166.865 278.732 166.87 278.732 166.874C278.732 166.879 278.732 166.884 278.732 166.889C278.732 166.893 278.732 166.898 278.732 166.903C278.732 166.907 278.732 166.912 278.732 166.917C278.732 166.921 278.732 166.926 278.732 166.931C278.732 166.935 278.732 166.94 278.732 166.945C278.732 166.95 278.732 166.954 278.732 166.959C278.732 166.964 278.732 166.968 278.732 166.973C278.732 166.978 278.732 166.982 278.732 166.987C278.732 166.992 278.732 166.996 278.732 167.001C278.732 167.006 278.732 167.01 278.732 167.015C278.732 167.02 278.732 167.024 278.732 167.029C278.732 167.033 278.732 167.038 278.732 167.043C278.732 167.047 278.732 167.052 278.732 167.057C278.732 167.061 278.732 167.066 278.732 167.071C278.732 167.075 278.732 167.08 278.732 167.084C278.732 167.089 278.732 167.094 278.732 167.098C278.732 167.103 278.732 167.107 278.732 167.112C278.732 167.117 278.732 167.121 278.732 167.126C278.732 167.13 278.732 167.135 278.732 167.14C278.732 167.144 278.732 167.149 278.732 167.153C278.732 167.158 278.732 167.163 278.732 167.167C278.732 167.172 278.732 167.176 278.732 167.181C278.732 167.185 278.732 167.19 278.732 167.195C278.732 167.199 278.732 167.204 278.732 167.208C278.732 167.213 278.732 167.217 278.732 167.222C278.732 167.226 278.732 167.231 278.732 167.235C278.732 167.24 278.732 167.245 278.732 167.249C278.732 167.254 278.732 167.258 278.732 167.263C278.732 167.267 278.732 167.272 278.732 167.276C278.732 167.281 278.732 167.285 278.732 167.29C278.732 167.294 278.732 167.299 278.732 167.303C278.732 167.308 278.732 167.312 278.732 167.317C278.732 167.321 278.732 167.326 278.732 167.33C278.732 167.335 278.732 167.339 278.732 167.344C278.732 167.348 278.732 167.353 278.732 167.357C278.732 167.362 278.732 167.366 278.732 167.37C278.732 167.375 278.732 167.379 278.732 167.384C278.732 167.388 278.732 167.393 278.732 167.397C278.732 167.402 278.732 167.406 278.732 167.41C278.732 167.415 278.732 167.419 278.732 167.424C278.732 167.428 278.732 167.433 278.732 167.437C278.732 167.441 278.732 167.446 278.732 167.45C278.732 167.455 278.732 167.459 278.732 167.463C278.732 167.468 278.732 167.472 278.732 167.477C278.732 167.481 278.732 167.485 278.732 167.49C278.732 167.494 278.732 167.499 278.732 167.503C278.732 167.507 278.732 167.512 278.732 167.516C278.732 167.52 278.732 167.525 278.732 167.529C278.732 167.534 278.732 167.538 278.732 167.542C278.732 167.547 278.732 167.551 278.732 167.555C278.732 167.56 278.732 167.564 278.732 167.568C278.732 167.573 278.732 167.577 278.732 167.581C278.732 167.586 278.732 167.59 278.732 167.594C278.732 167.599 278.732 167.603 278.732 167.607C278.732 167.611 278.732 167.616 278.732 167.62C278.732 167.624 278.732 167.629 278.732 167.633C278.732 167.637 278.732 167.641 278.732 167.646C278.732 167.65 278.732 167.654 278.732 167.659C278.732 167.663 278.732 167.667 278.732 167.671C278.732 167.676 278.732 167.68 278.732 167.684C278.732 167.688 278.732 167.693 278.732 167.697C278.732 167.701 278.732 167.705 278.732 167.709C278.732 167.714 278.732 167.718 278.732 167.722C278.732 167.726 278.732 167.731 278.732 167.735C278.732 167.739 278.732 167.743 278.732 167.747C278.732 167.752 278.732 167.756 278.732 167.76C278.732 167.764 278.732 167.768 278.732 167.773C278.732 167.777 278.732 167.781 278.732 167.785C278.732 167.789 278.732 167.793 278.732 167.798C278.732 167.802 278.732 167.806 278.732 167.81C278.732 167.814 278.732 167.818 278.732 167.822C278.732 167.827 278.732 167.831 278.732 167.835C278.732 167.839 278.732 167.843 278.732 167.847C278.732 167.851 278.732 167.855 278.732 167.859C278.732 167.864 278.732 167.868 278.732 167.872C278.732 167.876 278.732 167.88 278.732 167.884C278.732 167.888 278.732 167.892 278.732 167.896C278.732 167.9 278.732 167.904 278.732 167.908C278.732 167.913 278.732 167.917 278.732 167.921C278.732 167.925 278.732 167.929 278.732 167.933C278.732 167.937 278.732 167.941 278.732 167.945C278.732 167.949 278.732 167.953 278.732 167.957C278.732 167.961 278.732 167.965 278.732 167.969C278.732 167.973 278.732 167.977 278.732 167.981C278.732 167.985 278.732 167.989 278.732 167.993C278.732 167.997 278.732 168.001 278.732 168.005C278.732 168.009 278.732 168.013 278.732 168.017C278.732 168.021 278.732 168.025 278.732 168.029C278.732 168.033 278.732 168.037 278.732 168.041C278.732 168.044 278.732 168.048 278.732 168.052C278.732 168.056 278.732 168.06 278.732 168.064C278.732 168.068 278.732 168.072 278.732 168.076C278.732 168.08 278.732 168.084 278.732 168.088C278.732 168.091 278.732 168.095 278.732 168.099C278.732 168.103 278.732 168.107 278.732 168.111C278.732 168.115 278.732 168.119 278.732 168.122C278.732 168.126 278.732 168.13 278.732 168.134C278.732 168.138 278.732 168.142 278.732 168.145C278.732 168.149 278.732 168.153 278.732 168.157C278.732 168.161 278.732 168.165 278.732 168.168C278.732 168.172 278.732 168.176 278.732 168.18C278.732 168.184 278.732 168.187 278.732 168.191C278.732 168.195 278.732 168.199 278.732 168.203C278.732 168.206 278.732 168.21 278.732 168.214C278.732 168.218 278.732 168.221 278.732 168.225C278.732 168.229 278.732 168.233 278.732 168.236C278.732 168.24 278.732 168.244 278.732 168.248C278.732 168.251 278.732 168.255 278.732 168.259C278.732 168.262 278.732 168.266 278.732 168.27C278.732 168.273 278.732 168.277 278.732 168.281C278.732 168.285 278.732 168.288 278.732 168.292C278.732 168.296 278.732 168.299 278.732 168.303C278.732 168.307 278.732 168.31 278.732 168.314C278.732 168.317 278.732 168.321 278.732 168.325C278.732 168.328 278.732 168.332 278.732 168.336C278.732 168.339 278.732 168.343 278.732 168.346C278.732 168.35 278.732 168.354 278.732 168.357C278.732 168.361 278.732 168.364 278.732 168.368C278.732 168.372 278.732 168.375 278.732 168.379C278.732 168.382 278.732 168.386 278.732 168.389C278.732 168.393 278.732 168.397 278.732 168.4C278.732 168.404 278.732 168.407 278.732 168.411C278.732 168.414 278.732 168.418 278.732 168.421C278.732 168.425 278.732 168.428 278.732 168.432C278.732 168.435 278.732 168.439 278.732 168.442C278.732 168.446 278.732 168.449 278.732 168.453C278.732 168.456 278.732 168.46 278.732 168.463C278.732 168.467 278.732 168.47 278.732 168.473C278.732 168.477 278.732 168.48 278.732 168.484C278.732 168.487 278.732 168.491 278.732 168.494C278.732 168.497 278.732 168.501 278.732 168.504C278.732 168.508 278.732 168.511 278.732 168.514C278.732 168.518 278.732 168.521 278.732 168.525C278.732 168.528 278.732 168.531 278.732 168.535C278.732 168.538 278.732 168.541 278.732 168.545C278.732 168.548 278.732 168.551 278.732 168.555C278.732 168.558 278.732 168.561 278.732 168.565C278.732 168.568 278.732 168.571 278.732 168.575C278.732 168.578 278.732 168.581 278.732 168.585C278.732 168.588 278.732 168.591 278.732 168.594C278.732 168.598 278.732 168.601 278.732 168.604C278.732 168.607 278.732 168.611 278.732 168.614C278.732 168.617 278.732 168.62 278.732 168.624C278.732 168.627 278.732 168.63 278.732 168.633C278.732 168.637 278.732 168.64 278.732 168.643C278.732 168.646 278.732 168.649 278.732 168.653C278.732 168.656 278.732 168.659 278.732 168.662C278.732 168.665 278.732 168.668 278.732 168.672C278.732 168.675 278.732 168.678 278.732 168.681C278.732 168.684 278.732 168.687 278.732 168.69C278.732 168.693 278.732 168.697 278.732 168.7C278.732 168.703 278.732 168.706 278.732 168.709C278.732 168.712 278.732 168.715 278.732 168.718C278.732 168.721 278.732 168.724 278.732 168.727C278.732 168.731 278.732 168.734 278.732 168.737C278.732 168.74 278.732 168.743 278.732 168.746C278.732 168.749 278.732 168.752 278.732 168.755C278.732 168.758 278.732 168.761 278.732 168.764C278.732 168.767 278.732 168.77 278.732 168.773C278.732 168.776 278.732 168.779 278.732 168.782C278.732 168.785 278.732 168.788 278.732 168.791C278.732 168.794 278.732 168.797 278.732 168.799C278.732 168.802 278.732 168.805 278.732 168.808C278.732 168.811 278.732 168.814 278.732 168.817C278.732 168.82 278.732 168.823 278.732 168.826C278.732 168.829 278.732 168.831 278.732 168.834C278.732 168.837 278.732 168.84 278.732 168.843C278.732 168.846 278.732 168.849 278.732 168.851C278.732 168.854 278.732 168.857 278.732 168.86C278.732 168.863 278.732 168.866 278.732 168.868C278.732 168.871 278.732 168.874 278.732 168.877C278.732 168.88 278.732 168.882 278.732 168.885C278.732 168.888 278.732 168.891 278.732 168.893C278.732 168.896 278.732 168.899 278.732 168.902C278.732 168.904 278.732 168.907 278.732 168.91C278.732 168.913 278.732 168.915 278.732 168.918C278.732 168.921 278.732 168.923 278.732 168.926C278.732 168.929 278.732 168.931 278.732 168.934C278.732 168.937 278.732 168.939 278.732 168.942C278.732 168.945 278.732 168.947 278.732 168.95H282.732C282.732 168.947 282.732 168.945 282.732 168.942C282.732 168.939 282.732 168.937 282.732 168.934C282.732 168.931 282.732 168.929 282.732 168.926C282.732 168.923 282.732 168.921 282.732 168.918C282.732 168.915 282.732 168.913 282.732 168.91C282.732 168.907 282.732 168.904 282.732 168.902C282.732 168.899 282.732 168.896 282.732 168.893C282.732 168.891 282.732 168.888 282.732 168.885C282.732 168.882 282.732 168.88 282.732 168.877C282.732 168.874 282.732 168.871 282.732 168.868C282.732 168.866 282.732 168.863 282.732 168.86C282.732 168.857 282.732 168.854 282.732 168.851C282.732 168.849 282.732 168.846 282.732 168.843C282.732 168.84 282.732 168.837 282.732 168.834C282.732 168.831 282.732 168.829 282.732 168.826C282.732 168.823 282.732 168.82 282.732 168.817C282.732 168.814 282.732 168.811 282.732 168.808C282.732 168.805 282.732 168.802 282.732 168.799C282.732 168.797 282.732 168.794 282.732 168.791C282.732 168.788 282.732 168.785 282.732 168.782C282.732 168.779 282.732 168.776 282.732 168.773C282.732 168.77 282.732 168.767 282.732 168.764C282.732 168.761 282.732 168.758 282.732 168.755C282.732 168.752 282.732 168.749 282.732 168.746C282.732 168.743 282.732 168.74 282.732 168.737C282.732 168.734 282.732 168.731 282.732 168.727C282.732 168.724 282.732 168.721 282.732 168.718C282.732 168.715 282.732 168.712 282.732 168.709C282.732 168.706 282.732 168.703 282.732 168.7C282.732 168.697 282.732 168.693 282.732 168.69C282.732 168.687 282.732 168.684 282.732 168.681C282.732 168.678 282.732 168.675 282.732 168.672C282.732 168.668 282.732 168.665 282.732 168.662C282.732 168.659 282.732 168.656 282.732 168.653C282.732 168.649 282.732 168.646 282.732 168.643C282.732 168.64 282.732 168.637 282.732 168.633C282.732 168.63 282.732 168.627 282.732 168.624C282.732 168.62 282.732 168.617 282.732 168.614C282.732 168.611 282.732 168.607 282.732 168.604C282.732 168.601 282.732 168.598 282.732 168.594C282.732 168.591 282.732 168.588 282.732 168.585C282.732 168.581 282.732 168.578 282.732 168.575C282.732 168.571 282.732 168.568 282.732 168.565C282.732 168.561 282.732 168.558 282.732 168.555C282.732 168.551 282.732 168.548 282.732 168.545C282.732 168.541 282.732 168.538 282.732 168.535C282.732 168.531 282.732 168.528 282.732 168.525C282.732 168.521 282.732 168.518 282.732 168.514C282.732 168.511 282.732 168.508 282.732 168.504C282.732 168.501 282.732 168.497 282.732 168.494C282.732 168.491 282.732 168.487 282.732 168.484C282.732 168.48 282.732 168.477 282.732 168.473C282.732 168.47 282.732 168.467 282.732 168.463C282.732 168.46 282.732 168.456 282.732 168.453C282.732 168.449 282.732 168.446 282.732 168.442C282.732 168.439 282.732 168.435 282.732 168.432C282.732 168.428 282.732 168.425 282.732 168.421C282.732 168.418 282.732 168.414 282.732 168.411C282.732 168.407 282.732 168.404 282.732 168.4C282.732 168.397 282.732 168.393 282.732 168.389C282.732 168.386 282.732 168.382 282.732 168.379C282.732 168.375 282.732 168.372 282.732 168.368C282.732 168.364 282.732 168.361 282.732 168.357C282.732 168.354 282.732 168.35 282.732 168.346C282.732 168.343 282.732 168.339 282.732 168.336C282.732 168.332 282.732 168.328 282.732 168.325C282.732 168.321 282.732 168.317 282.732 168.314C282.732 168.31 282.732 168.307 282.732 168.303C282.732 168.299 282.732 168.296 282.732 168.292C282.732 168.288 282.732 168.285 282.732 168.281C282.732 168.277 282.732 168.273 282.732 168.27C282.732 168.266 282.732 168.262 282.732 168.259C282.732 168.255 282.732 168.251 282.732 168.248C282.732 168.244 282.732 168.24 282.732 168.236C282.732 168.233 282.732 168.229 282.732 168.225C282.732 168.221 282.732 168.218 282.732 168.214C282.732 168.21 282.732 168.206 282.732 168.203C282.732 168.199 282.732 168.195 282.732 168.191C282.732 168.187 282.732 168.184 282.732 168.18C282.732 168.176 282.732 168.172 282.732 168.168C282.732 168.165 282.732 168.161 282.732 168.157C282.732 168.153 282.732 168.149 282.732 168.145C282.732 168.142 282.732 168.138 282.732 168.134C282.732 168.13 282.732 168.126 282.732 168.122C282.732 168.119 282.732 168.115 282.732 168.111C282.732 168.107 282.732 168.103 282.732 168.099C282.732 168.095 282.732 168.091 282.732 168.088C282.732 168.084 282.732 168.08 282.732 168.076C282.732 168.072 282.732 168.068 282.732 168.064C282.732 168.06 282.732 168.056 282.732 168.052C282.732 168.048 282.732 168.044 282.732 168.041C282.732 168.037 282.732 168.033 282.732 168.029C282.732 168.025 282.732 168.021 282.732 168.017C282.732 168.013 282.732 168.009 282.732 168.005C282.732 168.001 282.732 167.997 282.732 167.993C282.732 167.989 282.732 167.985 282.732 167.981C282.732 167.977 282.732 167.973 282.732 167.969C282.732 167.965 282.732 167.961 282.732 167.957C282.732 167.953 282.732 167.949 282.732 167.945C282.732 167.941 282.732 167.937 282.732 167.933C282.732 167.929 282.732 167.925 282.732 167.921C282.732 167.917 282.732 167.913 282.732 167.908C282.732 167.904 282.732 167.9 282.732 167.896C282.732 167.892 282.732 167.888 282.732 167.884C282.732 167.88 282.732 167.876 282.732 167.872C282.732 167.868 282.732 167.864 282.732 167.859C282.732 167.855 282.732 167.851 282.732 167.847C282.732 167.843 282.732 167.839 282.732 167.835C282.732 167.831 282.732 167.827 282.732 167.822C282.732 167.818 282.732 167.814 282.732 167.81C282.732 167.806 282.732 167.802 282.732 167.798C282.732 167.793 282.732 167.789 282.732 167.785C282.732 167.781 282.732 167.777 282.732 167.773C282.732 167.768 282.732 167.764 282.732 167.76C282.732 167.756 282.732 167.752 282.732 167.747C282.732 167.743 282.732 167.739 282.732 167.735C282.732 167.731 282.732 167.726 282.732 167.722C282.732 167.718 282.732 167.714 282.732 167.709C282.732 167.705 282.732 167.701 282.732 167.697C282.732 167.693 282.732 167.688 282.732 167.684C282.732 167.68 282.732 167.676 282.732 167.671C282.732 167.667 282.732 167.663 282.732 167.659C282.732 167.654 282.732 167.65 282.732 167.646C282.732 167.641 282.732 167.637 282.732 167.633C282.732 167.629 282.732 167.624 282.732 167.62C282.732 167.616 282.732 167.611 282.732 167.607C282.732 167.603 282.732 167.599 282.732 167.594C282.732 167.59 282.732 167.586 282.732 167.581C282.732 167.577 282.732 167.573 282.732 167.568C282.732 167.564 282.732 167.56 282.732 167.555C282.732 167.551 282.732 167.547 282.732 167.542C282.732 167.538 282.732 167.534 282.732 167.529C282.732 167.525 282.732 167.52 282.732 167.516C282.732 167.512 282.732 167.507 282.732 167.503C282.732 167.499 282.732 167.494 282.732 167.49C282.732 167.485 282.732 167.481 282.732 167.477C282.732 167.472 282.732 167.468 282.732 167.463C282.732 167.459 282.732 167.455 282.732 167.45C282.732 167.446 282.732 167.441 282.732 167.437C282.732 167.433 282.732 167.428 282.732 167.424C282.732 167.419 282.732 167.415 282.732 167.41C282.732 167.406 282.732 167.402 282.732 167.397C282.732 167.393 282.732 167.388 282.732 167.384C282.732 167.379 282.732 167.375 282.732 167.37C282.732 167.366 282.732 167.362 282.732 167.357C282.732 167.353 282.732 167.348 282.732 167.344C282.732 167.339 282.732 167.335 282.732 167.33C282.732 167.326 282.732 167.321 282.732 167.317C282.732 167.312 282.732 167.308 282.732 167.303C282.732 167.299 282.732 167.294 282.732 167.29C282.732 167.285 282.732 167.281 282.732 167.276C282.732 167.272 282.732 167.267 282.732 167.263C282.732 167.258 282.732 167.254 282.732 167.249C282.732 167.245 282.732 167.24 282.732 167.235C282.732 167.231 282.732 167.226 282.732 167.222C282.732 167.217 282.732 167.213 282.732 167.208C282.732 167.204 282.732 167.199 282.732 167.195C282.732 167.19 282.732 167.185 282.732 167.181C282.732 167.176 282.732 167.172 282.732 167.167C282.732 167.163 282.732 167.158 282.732 167.153C282.732 167.149 282.732 167.144 282.732 167.14C282.732 167.135 282.732 167.13 282.732 167.126C282.732 167.121 282.732 167.117 282.732 167.112C282.732 167.107 282.732 167.103 282.732 167.098C282.732 167.094 282.732 167.089 282.732 167.084C282.732 167.08 282.732 167.075 282.732 167.071C282.732 167.066 282.732 167.061 282.732 167.057C282.732 167.052 282.732 167.047 282.732 167.043C282.732 167.038 282.732 167.033 282.732 167.029C282.732 167.024 282.732 167.02 282.732 167.015C282.732 167.01 282.732 167.006 282.732 167.001C282.732 166.996 282.732 166.992 282.732 166.987C282.732 166.982 282.732 166.978 282.732 166.973C282.732 166.968 282.732 166.964 282.732 166.959C282.732 166.954 282.732 166.95 282.732 166.945C282.732 166.94 282.732 166.935 282.732 166.931C282.732 166.926 282.732 166.921 282.732 166.917C282.732 166.912 282.732 166.907 282.732 166.903C282.732 166.898 282.732 166.893 282.732 166.889C282.732 166.884 282.732 166.879 282.732 166.874C282.732 166.87 282.732 166.865 282.732 166.86C282.732 166.856 282.732 166.851 282.732 166.846C282.732 166.841 282.732 166.837 282.732 166.832C282.732 166.827 282.732 166.822 282.732 166.818C282.732 166.813 282.732 166.808 282.732 166.803C282.732 166.799 282.732 166.794 282.732 166.789C282.732 166.785 282.732 166.78 282.732 166.775C282.732 166.77 282.732 166.765 282.732 166.761C282.732 166.756 282.732 166.751 282.732 166.746C282.732 166.742 282.732 166.737 282.732 166.732C282.732 166.727 282.732 166.723 282.732 166.718C282.732 166.713 282.732 166.708 282.732 166.704C282.732 166.699 282.732 166.694 282.732 166.689C282.732 166.684 282.732 166.68 282.732 166.675C282.732 166.67 282.732 166.665 282.732 166.66C282.732 166.656 282.732 166.651 282.732 166.646C282.732 166.641 282.732 166.636 282.732 166.632C282.732 166.627 282.732 166.622 282.732 166.617C282.732 166.612 282.732 166.608 282.732 166.603C282.732 166.598 282.732 166.593 282.732 166.588C282.732 166.584 282.732 166.579 282.732 166.574C282.732 166.569 282.732 166.564 282.732 166.559C282.732 166.555 282.732 166.55 282.732 166.545C282.732 166.54 282.732 166.535 282.732 166.53C282.732 166.526 282.732 166.521 282.732 166.516C282.732 166.511 282.732 166.506 282.732 166.501C282.732 166.497 282.732 166.492 282.732 166.487C282.732 166.482 282.732 166.477 282.732 166.472C282.732 166.467 282.732 166.463 282.732 166.458C282.732 166.453 282.732 166.448 282.732 166.443C282.732 166.438 282.732 166.433 282.732 166.429C282.732 166.424 282.732 166.419 282.732 166.414C282.732 166.409 282.732 166.404 282.732 166.399C282.732 166.394 282.732 166.39 282.732 166.385C282.732 166.38 282.732 166.375 282.732 166.37C282.732 166.365 282.732 166.36 282.732 166.355C282.732 166.351 282.732 166.346 282.732 166.341C282.732 166.336 282.732 166.331 282.732 166.326C282.732 166.321 282.732 166.316 282.732 166.311C282.732 166.307 282.732 166.302 282.732 166.297C282.732 166.292 282.732 166.287 282.732 166.282C282.732 166.277 282.732 166.272 282.732 166.267C282.732 166.262 282.732 166.257 282.732 166.253C282.732 166.248 282.732 166.243 282.732 166.238C282.732 166.233 282.732 166.228 282.732 166.223C282.732 166.218 282.732 166.213 282.732 166.208C282.732 166.203 282.732 166.199 282.732 166.194C282.732 166.189 282.732 166.184 282.732 166.179C282.732 166.174 282.732 166.169 282.732 166.164C282.732 166.159 282.732 166.154 282.732 166.149C282.732 166.144 282.732 166.139 282.732 166.134C282.732 166.13 282.732 166.125 282.732 166.12C282.732 166.115 282.732 166.11 282.732 166.105C282.732 166.1 282.732 166.095 282.732 166.09C282.732 166.085 282.732 166.08 282.732 166.075C282.732 166.07 282.732 166.065 282.732 166.06C282.732 166.055 282.732 166.05 282.732 166.046C282.732 166.041 282.732 166.036 282.732 166.031C282.732 166.026 282.732 166.021 282.732 166.016C282.732 166.011 282.732 166.006 282.732 166.001C282.732 165.996 282.732 165.991 282.732 165.986C282.732 165.981 282.732 165.976 282.732 165.971C282.732 165.966 282.732 165.961 282.732 165.956C282.732 165.951 282.732 165.946 282.732 165.941C282.732 165.937 282.732 165.932 282.732 165.927C282.732 165.922 282.732 165.917 282.732 165.912C282.732 165.907 282.732 165.902 282.732 165.897C282.732 165.892 282.732 165.887 282.732 165.882C282.732 165.877 282.732 165.872 282.732 165.867C282.732 165.862 282.732 165.857 282.732 165.852C282.732 165.847 282.732 165.842 282.732 165.837C282.732 165.832 282.732 165.827 282.732 165.822C282.732 165.817 282.732 165.812 282.732 165.807C282.732 165.802 282.732 165.797 282.732 165.792C282.732 165.787 282.732 165.782 282.732 165.777C282.732 165.772 282.732 165.767 282.732 165.762C282.732 165.758 282.732 165.753 282.732 165.748C282.732 165.743 282.732 165.738 282.732 165.733C282.732 165.728 282.732 165.723 282.732 165.718C282.732 165.713 282.732 165.708 282.732 165.703C282.732 165.698 282.732 165.693 282.732 165.688C282.732 165.683 282.732 165.678 282.732 165.673C282.732 165.668 282.732 165.663 282.732 165.658C282.732 165.653 282.732 165.648 282.732 165.643C282.732 165.638 282.732 165.633 282.732 165.628C282.732 165.623 282.732 165.618 282.732 165.613C282.732 165.608 282.732 165.603 282.732 165.598C282.732 165.593 282.732 165.588 282.732 165.583C282.732 165.578 282.732 165.573 282.732 165.568C282.732 165.563 282.732 165.558 282.732 165.553C282.732 165.548 282.732 165.543 282.732 165.538C282.732 165.533 282.732 165.528 282.732 165.523C282.732 165.518 282.732 165.513 282.732 165.508C282.732 165.503 282.732 165.498 282.732 165.493C282.732 165.488 282.732 165.483 282.732 165.478C282.732 165.473 282.732 165.468 282.732 165.463C282.732 165.458 282.732 165.453 282.732 165.448C282.732 165.443 282.732 165.438 282.732 165.433C282.732 165.428 282.732 165.423 282.732 165.418C282.732 165.413 282.732 165.408 282.732 165.403C282.732 165.398 282.732 165.393 282.732 165.388C282.732 165.383 282.732 165.378 282.732 165.373C282.732 165.368 282.732 165.363 282.732 165.358C282.732 165.353 282.732 165.348 282.732 165.343C282.732 165.338 282.732 165.334 282.732 165.329C282.732 165.324 282.732 165.319 282.732 165.314C282.732 165.309 282.732 165.304 282.732 165.299C282.732 165.294 282.732 165.289 282.732 165.284C282.732 165.279 282.732 165.274 282.732 165.269C282.732 165.264 282.732 165.259 282.732 165.254C282.732 165.249 282.732 165.244 282.732 165.239C282.732 165.234 282.732 165.229 282.732 165.224C282.732 165.219 282.732 165.214 282.732 165.209C282.732 165.204 282.732 165.199 282.732 165.194C282.732 165.189 282.732 165.184 282.732 165.179C282.732 165.174 282.732 165.169 282.732 165.164C282.732 165.159 282.732 165.154 282.732 165.149C282.732 165.144 282.732 165.139 282.732 165.134C282.732 165.129 282.732 165.124 282.732 165.119C282.732 165.114 282.732 165.109 282.732 165.104C282.732 165.099 282.732 165.094 282.732 165.09C282.732 165.085 282.732 165.08 282.732 165.075C282.732 165.07 282.732 165.065 282.732 165.06C282.732 165.055 282.732 165.05 282.732 165.045C282.732 165.04 282.732 165.035 282.732 165.03C282.732 165.025 282.732 165.02 282.732 165.015C282.732 165.01 282.732 165.005 282.732 165C282.732 164.995 282.732 164.99 282.732 164.985C282.732 164.98 282.732 164.975 282.732 164.97C282.732 164.965 282.732 164.961 282.732 164.956C282.732 164.951 282.732 164.946 282.732 164.941C282.732 164.936 282.732 164.931 282.732 164.926C282.732 164.921 282.732 164.916 282.732 164.911C282.732 164.906 282.732 164.901 282.732 164.896C282.732 164.891 282.732 164.886 282.732 164.881C282.732 164.876 282.732 164.872 282.732 164.867C282.732 164.862 282.732 164.857 282.732 164.852C282.732 164.847 282.732 164.842 282.732 164.837C282.732 164.832 282.732 164.827 282.732 164.822C282.732 164.817 282.732 164.812 282.732 164.807C282.732 164.802 282.732 164.798 282.732 164.793C282.732 164.788 282.732 164.783 282.732 164.778C282.732 164.773 282.732 164.768 282.732 164.763C282.732 164.758 282.732 164.753 282.732 164.748C282.732 164.743 282.732 164.739 282.732 164.734C282.732 164.729 282.732 164.724 282.732 164.719C282.732 164.714 282.732 164.709 282.732 164.704C282.732 164.699 282.732 164.694 282.732 164.689C282.732 164.685 282.732 164.68 282.732 164.675C282.732 164.67 282.732 164.665 282.732 164.66C282.732 164.655 282.732 164.65 282.732 164.645C282.732 164.641 282.732 164.636 282.732 164.631C282.732 164.626 282.732 164.621 282.732 164.616C282.732 164.611 282.732 164.606 282.732 164.601C282.732 164.597 282.732 164.592 282.732 164.587C282.732 164.582 282.732 164.577 282.732 164.572C282.732 164.567 282.732 164.562 282.732 164.558C282.732 164.553 282.732 164.548 282.732 164.543C282.732 164.538 282.732 164.533 282.732 164.528C282.732 164.524 282.732 164.519 282.732 164.514C282.732 164.509 282.732 164.504 282.732 164.499C282.732 164.494 282.732 164.49 282.732 164.485C282.732 164.48 282.732 164.475 282.732 164.47C282.732 164.465 282.732 164.461 282.732 164.456C282.732 164.451 282.732 164.446 282.732 164.441C282.732 164.436 282.732 164.432 282.732 164.427C282.732 164.422 282.732 164.417 282.732 164.412C282.732 164.407 282.732 164.403 282.732 164.398C282.732 164.393 282.732 164.388 282.732 164.383C282.732 164.378 282.732 164.374 282.732 164.369C282.732 164.364 282.732 164.359 282.732 164.354C282.732 164.35 282.732 164.345 282.732 164.34C282.732 164.335 282.732 164.33 282.732 164.326C282.732 164.321 282.732 164.316 282.732 164.311C282.732 164.306 282.732 164.302 282.732 164.297C282.732 164.292 282.732 164.287 282.732 164.282C282.732 164.278 282.732 164.273 282.732 164.268C282.732 164.263 282.732 164.259 282.732 164.254C282.732 164.249 282.732 164.244 282.732 164.24C282.732 164.235 282.732 164.23 282.732 164.225C282.732 164.22 282.732 164.216 282.732 164.211C282.732 164.206 282.732 164.201 282.732 164.197C282.732 164.192 282.732 164.187 282.732 164.182C282.732 164.178 282.732 164.173 282.732 164.168C282.732 164.163 282.732 164.159 282.732 164.154C282.732 164.149 282.732 164.145 282.732 164.14C282.732 164.135 282.732 164.13 282.732 164.126C282.732 164.121 282.732 164.116 282.732 164.111C282.732 164.107 282.732 164.102 282.732 164.097C282.732 164.093 282.732 164.088 282.732 164.083C282.732 164.079 282.732 164.074 282.732 164.069C282.732 164.064 282.732 164.06 282.732 164.055C282.732 164.05 282.732 164.046 282.732 164.041C282.732 164.036 282.732 164.032 282.732 164.027C282.732 164.022 282.732 164.018 282.732 164.013C282.732 164.008 282.732 164.004 282.732 163.999C282.732 163.994 282.732 163.99 282.732 163.985C282.732 163.98 282.732 163.976 282.732 163.971C282.732 163.966 282.732 163.962 282.732 163.957C282.732 163.952 282.732 163.948 282.732 163.943C282.732 163.938 282.732 163.934 282.732 163.929C282.732 163.924 282.732 163.92 282.732 163.915C282.732 163.911 282.732 163.906 282.732 163.901C282.732 163.897 282.732 163.892 282.732 163.887C282.732 163.883 282.732 163.878 282.732 163.874C282.732 163.869 282.732 163.864 282.732 163.86C282.732 163.855 282.732 163.851 282.732 163.846C282.732 163.841 282.732 163.837 282.732 163.832C282.732 163.828 282.732 163.823 282.732 163.819C282.732 163.814 282.732 163.809 282.732 163.805C282.732 163.8 282.732 163.796 282.732 163.791C282.732 163.787 282.732 163.782 282.732 163.777C282.732 163.773 282.732 163.768 282.732 163.764C282.732 163.759 282.732 163.755 282.732 163.75C282.732 163.746 282.732 163.741 282.732 163.737C282.732 163.732 282.732 163.727 282.732 163.723C282.732 163.718 282.732 163.714 282.732 163.709C282.732 163.705 282.732 163.7 282.732 163.696C282.732 163.691 282.732 163.687 282.732 163.682C282.732 163.678 282.732 163.673 282.732 163.669C282.732 163.664 282.732 163.66 282.732 163.655C282.732 163.651 282.732 163.646 282.732 163.642C282.732 163.637 282.732 163.633 282.732 163.628C282.732 163.624 282.732 163.619 282.732 163.615C282.732 163.611 282.732 163.606 282.732 163.602C282.732 163.597 282.732 163.593 282.732 163.588C282.732 163.584 282.732 163.579 282.732 163.575C282.732 163.571 282.732 163.566 282.732 163.562C282.732 163.557 282.732 163.553 282.732 163.548C282.732 163.544 282.732 163.54 282.732 163.535C282.732 163.531 282.732 163.526 282.732 163.522C282.732 163.517 282.732 163.513 282.732 163.509C282.732 163.504 282.732 163.5 282.732 163.495C282.732 163.491 282.732 163.487 282.732 163.482C282.732 163.478 282.732 163.474 282.732 163.469C282.732 163.465 282.732 163.46 282.732 163.456C282.732 163.452 282.732 163.447 282.732 163.443C282.732 163.439 282.732 163.434 282.732 163.43C282.732 163.426 282.732 163.421 282.732 163.417C282.732 163.413 282.732 163.408 282.732 163.404C282.732 163.4 282.732 163.395 282.732 163.391C282.732 163.387 282.732 163.382 282.732 163.378C282.732 163.374 282.732 163.369 282.732 163.365C282.732 163.361 282.732 163.357 282.732 163.352C282.732 163.348 282.732 163.344 282.732 163.339C282.732 163.335 282.732 163.331 282.732 163.327C282.732 163.322 282.732 163.318 282.732 163.314C282.732 163.31 282.732 163.305 282.732 163.301C282.732 163.297 282.732 163.293 282.732 163.288C282.732 163.284 282.732 163.28 282.732 163.276C282.732 163.271 282.732 163.267 282.732 163.263C282.732 163.259 282.732 163.254 282.732 163.25C282.732 163.246 282.732 163.242 282.732 163.238C282.732 163.233 282.732 163.229 282.732 163.225C282.732 163.221 282.732 163.217 282.732 163.212C282.732 163.208 282.732 163.204 282.732 163.2C282.732 163.196 282.732 163.192 282.732 163.187C282.732 163.183 282.732 163.179 282.732 163.175C282.732 163.171 282.732 163.167 282.732 163.163C282.732 163.158 282.732 163.154 282.732 163.15C282.732 163.146 282.732 163.142 282.732 163.138C282.732 163.134 282.732 163.129 282.732 163.125C282.732 163.121 282.732 163.117 282.732 163.113C282.732 163.109 282.732 163.105 282.732 163.101C282.732 163.097 282.732 163.093 282.732 163.089C282.732 163.084 282.732 163.08 282.732 163.076C282.732 163.072 282.732 163.068 282.732 163.064C282.732 163.06 282.732 163.056 282.732 163.052C282.732 163.048 282.732 163.044 282.732 163.04C282.732 163.036 282.732 163.032 282.732 163.028C282.732 163.024 282.732 163.02 282.732 163.016C282.732 163.012 282.732 163.008 282.732 163.004C282.732 163 282.732 162.996 282.732 162.992C282.732 162.988 282.732 162.984 282.732 162.98C282.732 162.976 282.732 162.972 282.732 162.968C282.732 162.964 282.732 162.96 282.732 162.956C282.732 162.952 282.732 162.948 282.732 162.944C282.732 162.94 282.732 162.936 282.732 162.932C282.732 162.928 282.732 162.924 282.732 162.92C282.732 162.917 282.732 162.913 282.732 162.909C282.732 162.905 282.732 162.901 282.732 162.897C282.732 162.893 282.732 162.889 282.732 162.885C282.732 162.881 282.732 162.878 282.732 162.874C282.732 162.87 282.732 162.866 282.732 162.862C282.732 162.858 282.732 162.854 282.732 162.85C282.732 162.847 282.732 162.843 282.732 162.839C282.732 162.835 282.732 162.831 282.732 162.827C282.732 162.824 282.732 162.82 282.732 162.816C282.732 162.812 282.732 162.808 282.732 162.804C282.732 162.801 282.732 162.797 282.732 162.793C282.732 162.789 282.732 162.786 282.732 162.782C282.732 162.778 282.732 162.774 282.732 162.77C282.732 162.767 282.732 162.763 282.732 162.759C282.732 162.755 282.732 162.752 282.732 162.748C282.732 162.744 282.732 162.74 282.732 162.737C282.732 162.733 282.732 162.729 282.732 162.726C282.732 162.722 282.732 162.718 282.732 162.714C282.732 162.711 282.732 162.707 282.732 162.703C282.732 162.7 282.732 162.696 282.732 162.692C282.732 162.689 282.732 162.685 282.732 162.681C282.732 162.678 282.732 162.674 282.732 162.67C282.732 162.667 282.732 162.663 282.732 162.659C282.732 162.656 282.732 162.652 282.732 162.648C282.732 162.645 282.732 162.641 282.732 162.638C282.732 162.634 282.732 162.63 282.732 162.627C282.732 162.623 282.732 162.619 282.732 162.616C282.732 162.612 282.732 162.609 282.732 162.605C282.732 162.602 282.732 162.598 282.732 162.594C282.732 162.591 282.732 162.587 282.732 162.584C282.732 162.58 282.732 162.577 282.732 162.573C282.732 162.57 282.732 162.566 282.732 162.563C282.732 162.559 282.732 162.556 282.732 162.552C282.732 162.549 282.732 162.545 282.732 162.542C282.732 162.538 282.732 162.535 282.732 162.531C282.732 162.528 282.732 162.524 282.732 162.521C282.732 162.517 282.732 162.514 282.732 162.51C282.732 162.507 282.732 162.503 282.732 162.5C282.732 162.496 282.732 162.493 282.732 162.49C282.732 162.486 282.732 162.483 282.732 162.479C282.732 162.476 282.732 162.473 282.732 162.469C282.732 162.466 282.732 162.462 282.732 162.459C282.732 162.456 282.732 162.452 282.732 162.449C282.732 162.446 282.732 162.442 282.732 162.439C282.732 162.435 282.732 162.432 282.732 162.429C282.732 162.425 282.732 162.422 282.732 162.419C282.732 162.415 282.732 162.412 282.732 162.409C282.732 162.405 282.732 162.402 282.732 162.399C282.732 162.396 282.732 162.392 282.732 162.389C282.732 162.386 282.732 162.382 282.732 162.379C282.732 162.376 282.732 162.373 282.732 162.369C282.732 162.366 282.732 162.363 282.732 162.36C282.732 162.356 282.732 162.353 282.732 162.35H278.732ZM280.736 166.95L217.436 166.8L217.427 170.8L280.727 170.95L280.736 166.95ZM215.432 168.8C215.432 176.803 222.951 184.9 236.632 184.9V180.9C224.512 180.9 219.432 173.997 219.432 168.8H215.432ZM236.632 184.9C240.93 184.9 244.485 184.315 247.216 183.411C249.871 182.533 251.997 181.269 253.109 179.712L249.854 177.388C249.466 177.931 248.292 178.842 245.96 179.614C243.703 180.36 240.583 180.9 236.632 180.9V184.9ZM251.482 180.55H279.082V176.55H251.482V180.55ZM277.16 177.996C275.151 184.96 263.77 200.4 238.882 200.4V204.4C265.594 204.4 278.512 187.74 281.003 179.104L277.16 177.996ZM217.432 157H252.532V153H217.432V157ZM254.532 155C254.532 150.127 252.71 145.889 249.319 142.89C245.951 139.91 241.205 138.3 235.582 138.3V142.3C240.458 142.3 244.187 143.69 246.669 145.885C249.129 148.061 250.532 151.173 250.532 155H254.532ZM235.582 138.3C224.177 138.3 215.432 145.625 215.432 155H219.432C219.432 148.475 225.686 142.3 235.582 142.3V138.3ZM281.938 171.5V169.5H279.938V171.5H281.938ZM305.638 171.5H307.638V169.5H305.638V171.5ZM358.138 148.55V150.55H360.102L360.137 148.586L358.138 148.55ZM334.438 148.55H332.438V150.55H334.438V148.55ZM357.487 173.45C357.487 179.62 354.814 186.31 348.907 191.483C343.007 196.65 333.758 200.4 320.487 200.4V204.4C334.517 204.4 344.768 200.425 351.543 194.492C358.311 188.565 361.487 180.78 361.487 173.45H357.487ZM320.487 200.4C305.012 200.4 295.971 195.708 290.773 189.942C285.53 184.126 283.938 176.93 283.938 171.5H279.938C279.938 177.62 281.72 185.874 287.802 192.62C293.929 199.417 304.163 204.4 320.487 204.4V200.4ZM281.938 173.5H305.638V169.5H281.938V173.5ZM303.638 171.5C303.638 175.575 308.507 182.35 323.788 182.35V178.35C309.368 178.35 307.638 172.225 307.638 171.5H303.638ZM323.788 182.35C329.44 182.35 332.882 181.138 334.946 179.467C337.04 177.772 337.487 175.786 337.487 174.8H333.487C333.487 174.714 333.485 175.503 332.429 176.358C331.343 177.237 328.935 178.35 323.788 178.35V182.35ZM337.487 174.8C337.487 172.498 335.868 170.986 334.192 170.02C332.484 169.035 330.176 168.284 327.639 167.636C325.072 166.979 322.096 166.387 318.975 165.776C315.836 165.162 312.532 164.526 309.231 163.775C302.59 162.264 296.199 160.334 291.497 157.372C286.876 154.46 284.087 150.696 284.087 145.4H280.087C280.087 152.479 283.974 157.359 289.365 160.756C294.676 164.103 301.635 166.149 308.344 167.675C311.718 168.443 315.089 169.091 318.207 169.702C321.345 170.316 324.21 170.888 326.648 171.511C329.118 172.142 330.982 172.786 332.194 173.485C333.439 174.203 333.487 174.664 333.487 174.8H337.487ZM284.087 145.4C284.087 140.197 286.324 135.144 291.735 131.321C297.218 127.446 306.094 124.75 319.438 124.75V120.75C305.631 120.75 295.832 123.529 289.427 128.054C282.951 132.631 280.087 138.903 280.087 145.4H284.087ZM319.438 124.75C335.751 124.75 344.891 129.007 349.934 133.931C354.988 138.865 356.205 144.737 356.138 148.514L360.137 148.586C360.22 143.963 358.737 136.935 352.728 131.069C346.709 125.193 336.424 120.75 319.438 120.75V124.75ZM358.138 146.55H334.438V150.55H358.138V146.55ZM336.438 148.55C336.438 145.731 334.502 143.299 331.41 141.679C328.303 140.05 323.748 139.05 317.638 139.05V143.05C323.377 143.05 327.222 144 329.553 145.221C331.898 146.451 332.438 147.769 332.438 148.55H336.438ZM317.638 139.05C314.764 139.05 311.559 139.197 309.022 139.82C307.763 140.13 306.491 140.598 305.495 141.36C304.434 142.173 303.638 143.373 303.638 144.95H307.638C307.638 144.877 307.628 144.765 307.927 144.537C308.29 144.258 308.95 143.957 309.978 143.705C312.016 143.203 314.811 143.05 317.638 143.05V139.05ZM303.638 144.95C303.638 146.121 304.219 147.025 304.938 147.644C305.609 148.22 306.459 148.611 307.297 148.901C308.981 149.484 311.267 149.872 313.79 150.205C318.994 150.891 325.525 151.39 332.201 152.617C338.851 153.84 345.24 155.728 349.931 158.994C354.509 162.183 357.487 166.682 357.487 173.45H361.487C361.487 165.218 357.735 159.555 352.216 155.712C346.81 151.947 339.736 149.935 332.924 148.683C326.137 147.435 319.206 146.884 314.313 146.239C311.787 145.906 309.866 145.558 308.606 145.121C307.971 144.902 307.664 144.712 307.546 144.61C307.477 144.551 307.638 144.679 307.638 144.95H303.638ZM375.048 144.8H377.048V142.8H375.048V144.8ZM360.048 144.8H358.048V146.8H360.048V144.8ZM360.048 124.85V122.85H358.048V124.85H360.048ZM375.048 124.85V126.85H377.048V124.85H375.048ZM375.048 93.2V91.2H373.048V93.2H375.048ZM398.598 93.2H400.598V91.2H398.598V93.2ZM398.598 124.85H396.598V126.85H398.598V124.85ZM418.098 124.85H420.098V122.85H418.098V124.85ZM418.098 144.8V146.8H420.098V144.8H418.098ZM398.598 144.8V142.8H396.598V144.8H398.598ZM417.348 178.1H419.348V176.1H417.348V178.1ZM417.348 200V202H419.348V200H417.348ZM377.048 170.15V144.8H373.048V170.15H377.048ZM375.048 142.8H360.048V146.8H375.048V142.8ZM362.048 144.8V124.85H358.048V144.8H362.048ZM360.048 126.85H375.048V122.85H360.048V126.85ZM377.048 124.85V93.2H373.048V124.85H377.048ZM375.048 95.2H398.598V91.2H375.048V95.2ZM396.598 93.2V124.85H400.598V93.2H396.598ZM398.598 126.85H418.098V122.85H398.598V126.85ZM416.098 124.85V144.8H420.098V124.85H416.098ZM418.098 142.8H398.598V146.8H418.098V142.8ZM396.598 144.8V170.15H400.598V144.8H396.598ZM396.598 170.15C396.598 173.489 397.372 176.248 399.689 178.02C401.85 179.673 404.927 180.1 408.498 180.1V176.1C405.019 176.1 403.145 175.627 402.119 174.843C401.248 174.177 400.598 172.961 400.598 170.15H396.598ZM408.498 180.1H417.348V176.1H408.498V180.1ZM415.348 178.1V200H419.348V178.1H415.348ZM417.348 198H394.998V202H417.348V198ZM394.998 198C391.2 198 388.274 197.023 385.986 195.457C383.682 193.881 381.912 191.628 380.572 188.915C377.868 183.436 377.048 176.338 377.048 170.15H373.048C373.048 176.562 373.878 184.389 376.986 190.685C378.552 193.859 380.729 196.707 383.727 198.758C386.74 200.821 390.47 202 394.998 202V198ZM423.14 118.25H421.14V120.25H423.14V118.25ZM423.14 95V93H421.14V95H423.14ZM448.19 95H450.19V93H448.19V95ZM448.19 118.25V120.25H450.19V118.25H448.19ZM424.04 200H422.04V202H424.04V200ZM424.04 125V123H422.04V125H424.04ZM447.44 125H449.44V123H447.44V125ZM447.44 200V202H449.44V200H447.44ZM425.14 118.25V95H421.14V118.25H425.14ZM423.14 97H448.19V93H423.14V97ZM446.19 95V118.25H450.19V95H446.19ZM448.19 116.25H423.14V120.25H448.19V116.25ZM426.04 200V125H422.04V200H426.04ZM424.04 127H447.44V123H424.04V127ZM445.44 125V200H449.44V125H445.44ZM447.44 198H424.04V202H447.44V198ZM457.945 162.65C457.945 150.467 462.142 141.08 469.532 134.708C476.961 128.303 487.845 124.75 501.545 124.75V120.75C487.194 120.75 475.278 124.472 466.92 131.679C458.522 138.92 453.945 149.483 453.945 162.65H457.945ZM501.545 124.75C515.114 124.75 525.968 128.686 533.402 135.306C540.816 141.908 544.995 151.322 544.995 162.65H548.995C548.995 150.278 544.398 139.742 536.062 132.319C527.746 124.914 515.875 120.75 501.545 120.75V124.75ZM544.995 162.65C544.995 173.977 540.817 183.352 533.406 189.915C525.973 196.499 515.119 200.4 501.545 200.4V204.4C515.87 204.4 527.741 200.276 536.058 192.91C544.398 185.523 548.995 175.023 548.995 162.65H544.995ZM501.545 200.4C487.84 200.4 476.955 196.882 469.528 190.513C462.142 184.18 457.945 174.832 457.945 162.65H453.945C453.945 175.818 458.522 186.345 466.924 193.55C475.284 200.718 487.199 204.4 501.545 204.4V200.4ZM479.445 162.65C479.445 167.677 480.683 172.489 484.281 176.021C487.87 179.545 493.457 181.45 501.395 181.45V177.45C494.032 177.45 489.644 175.68 487.083 173.167C484.531 170.661 483.445 167.073 483.445 162.65H479.445ZM501.395 181.45C509.333 181.45 514.95 179.544 518.574 176.029C522.211 172.502 523.495 167.692 523.495 162.65H519.495C519.495 167.058 518.378 170.648 515.79 173.158C513.189 175.681 508.756 177.45 501.395 177.45V181.45ZM523.495 162.65C523.495 157.609 522.212 152.736 518.592 149.138C514.973 145.541 509.353 143.55 501.395 143.55V147.55C508.736 147.55 513.166 149.384 515.772 151.975C518.377 154.564 519.495 158.241 519.495 162.65H523.495ZM501.395 143.55C493.437 143.55 487.847 145.541 484.264 149.146C480.682 152.75 479.445 157.624 479.445 162.65H483.445C483.445 158.226 484.532 154.55 487.101 151.966C489.667 149.384 494.052 147.55 501.395 147.55V143.55ZM581.828 128.6L580.622 127.005L580.615 127.01L581.828 128.6ZM629.828 200V202H631.828V200H629.828ZM606.129 200H604.129V202H606.129V200ZM573.879 200V202H575.879V200H573.879ZM550.179 200H548.179V202H550.179V200ZM550.179 125V123H548.179V125H550.179ZM573.879 125H575.879V123H573.879V125ZM567.578 147.95L565.708 147.243L565.005 149.103L566.861 149.817L567.578 147.95ZM571.479 149.45L570.761 151.317L572.638 152.039L573.349 150.157L571.479 149.45ZM583.035 130.195C588.108 126.356 594.517 124.75 603.129 124.75V120.75C594.04 120.75 586.649 122.444 580.622 127.005L583.035 130.195ZM603.129 124.75C610.335 124.75 616.49 126.817 620.82 130.723C625.119 134.6 627.828 140.477 627.828 148.55H631.828C631.828 139.523 628.763 132.5 623.499 127.752C618.267 123.033 611.072 120.75 603.129 120.75V124.75ZM627.828 148.55V200H631.828V148.55H627.828ZM629.828 198H606.129V202H629.828V198ZM608.129 200V165.65H604.129V200H608.129ZM608.129 165.65C608.129 158.978 607.031 153.767 604.402 150.196C601.672 146.488 597.569 144.9 592.479 144.9V148.9C596.688 148.9 599.41 150.162 601.18 152.567C603.051 155.108 604.129 159.272 604.129 165.65H608.129ZM592.479 144.9C587.013 144.9 581.837 146.469 578.007 149.959C574.144 153.479 571.879 158.743 571.879 165.65H575.879C575.879 159.657 577.813 155.546 580.701 152.916C583.62 150.256 587.744 148.9 592.479 148.9V144.9ZM571.879 165.65V200H575.879V165.65H571.879ZM573.879 198H550.179V202H573.879V198ZM552.179 200V125H548.179V200H552.179ZM550.179 127H573.879V123H550.179V127ZM571.879 125V125.6H575.879V125H571.879ZM571.879 125.6C571.879 128.885 571.017 132.549 569.784 136.322C568.546 140.11 567.015 143.783 565.708 147.243L569.449 148.657C570.692 145.367 572.311 141.465 573.586 137.565C574.865 133.651 575.879 129.515 575.879 125.6H571.879ZM566.861 149.817L570.761 151.317L572.196 147.583L568.296 146.083L566.861 149.817ZM573.349 150.157C574.005 148.422 574.631 146.495 575.267 144.589C575.911 142.661 576.573 140.727 577.325 138.879C578.85 135.13 580.634 132.027 583.042 130.19L580.615 127.01C577.323 129.523 575.207 133.47 573.62 137.371C572.815 139.348 572.118 141.389 571.473 143.323C570.82 145.28 570.227 147.103 569.608 148.743L573.349 150.157Z" fill="black" mask="url(#path-1-outside-1_3_391)"/>
<path d="M331.521 275.1V258.2H321.521V244.9H331.521V223.8H347.221V244.9H360.221V258.2H347.221V275.1C347.221 279.2 349.121 280.4 353.821 280.4H359.721V295H344.821C333.721 295 331.521 283.5 331.521 275.1ZM362.682 270.1C362.682 253.2 374.382 243.5 393.082 243.5C411.682 243.5 423.382 254.3 423.382 270.1C423.382 285.9 411.682 296.6 393.082 296.6C374.382 296.6 362.682 287 362.682 270.1ZM379.682 270.1C379.682 276.4 382.782 281.3 392.982 281.3C403.182 281.3 406.382 276.4 406.382 270.1C406.382 263.8 403.182 258.7 392.982 258.7C382.782 258.7 379.682 263.8 379.682 270.1ZM466.605 245L476.805 266.3C478.905 270.9 479.005 277.5 479.005 282.6H481.805C481.805 277.5 481.905 270.9 484.105 266.3L494.205 245H514.205L488.605 294.9C487.005 298 485.605 300.5 484.005 303.7C479.305 313.4 473.405 320 465.505 320H448.405V304.2H457.405C463.305 304.2 466.005 301.1 468.805 296.4L471.405 291.9L446.605 245H466.605ZM516.636 270.1C516.636 253.2 528.336 243.5 547.036 243.5C565.636 243.5 577.336 254.3 577.336 270.1C577.336 285.9 565.636 296.6 547.036 296.6C528.336 296.6 516.636 287 516.636 270.1ZM533.636 270.1C533.636 276.4 536.736 281.3 546.936 281.3C557.136 281.3 560.336 276.4 560.336 270.1C560.336 263.8 557.136 258.7 546.936 258.7C536.736 258.7 533.636 263.8 533.636 270.1ZM613.758 292.4C610.058 295.9 606.458 296.5 599.358 296.5C589.058 296.5 579.058 290.6 579.058 279.3V245H594.758V269.5C594.758 279.8 599.658 282.9 606.358 282.9C613.658 282.9 616.958 278.7 616.958 269.5V245H632.758V295H616.958L617.058 293.6C617.058 290.5 619.158 287 620.258 284.1L617.758 283.1C616.558 286 616.058 290.2 613.758 292.4Z" fill="black"/>
<path d="M17.6016 30L25.4016 59.4C26.0016 61.6 25.1016 64.5 25.0016 66.8H27.8016C27.8016 64.6 26.9016 61.6 27.5016 59.4L35.7016 30H52.7016L61.0016 59.4C61.6016 61.6 60.7016 64.6 60.7016 66.8H63.4016C63.4016 64.5 62.4016 61.6 63.0016 59.4L70.9016 30H87.1016L69.7016 80H52.7016L45.0016 43.3C44.5016 41.2 45.6016 38.2 45.6016 36H42.9016C42.9016 38.2 43.9016 41.2 43.5016 43.3L35.7016 80H18.8016L1.40156 30H17.6016ZM127.483 75C123.983 79.1 118.983 81.6 112.283 81.6C97.6828 81.6 87.2828 69.6 87.2828 54.7C87.2828 39.8 97.6828 28.5 112.283 28.5C118.883 28.5 123.883 30.8 127.483 34.7C129.483 36.9 129.583 41.1 130.483 44L133.183 43.1C132.283 40.3 130.383 36.8 130.383 33.7L130.483 30H146.183V80H130.483L130.383 75.9C130.383 72.9 132.283 69.4 133.083 66.5L130.483 65.7C129.583 68.6 129.483 72.7 127.483 75ZM102.983 54.7C102.983 61.3 107.883 67 113.583 67C119.283 67 124.383 61.5 124.383 54.7C124.383 48.2 120.683 43.1 113.583 43.1C107.883 43.1 102.983 48 102.983 54.7ZM186.776 75C183.276 79.1 178.276 81.6 171.576 81.6C156.976 81.6 146.576 69.6 146.576 54.7C146.576 39.8 156.976 28.5 171.576 28.5C178.176 28.5 183.176 30.8 186.776 34.7C188.776 36.9 188.876 41.1 189.776 44L192.476 43.1C191.576 40.3 189.676 36.8 189.676 33.7L189.776 30H205.476V80H189.776L189.676 75.9C189.676 72.9 191.576 69.4 192.376 66.5L189.776 65.7C188.876 68.6 188.776 72.7 186.776 75ZM162.276 54.7C162.276 61.3 167.176 67 172.876 67C178.576 67 183.676 61.5 183.676 54.7C183.676 48.2 179.976 43.1 172.876 43.1C167.176 43.1 162.276 48 162.276 54.7ZM246.069 75C242.569 79.1 237.569 81.6 230.869 81.6C216.269 81.6 205.869 69.6 205.869 54.7C205.869 39.8 216.269 28.5 230.869 28.5C237.469 28.5 242.469 30.8 246.069 34.7C248.069 36.9 248.169 41.1 249.069 44L251.769 43.1C250.869 40.3 248.969 36.8 248.969 33.7L249.069 30H264.769V80H249.069L248.969 75.9C248.969 72.9 250.869 69.4 251.669 66.5L249.069 65.7C248.169 68.6 248.069 72.7 246.069 75ZM221.569 54.7C221.569 61.3 226.469 67 232.169 67C237.869 67 242.969 61.5 242.969 54.7C242.969 48.2 239.269 43.1 232.169 43.1C226.469 43.1 221.569 48 221.569 54.7ZM291.287 32.4C294.987 29.6 299.587 28.5 305.487 28.5C315.587 28.5 323.287 34.3 323.287 45.7V80H307.487V57.1C307.487 48.4 304.587 44.6 298.387 44.6C291.587 44.6 285.987 48.5 285.987 57.1V80H270.187V30H285.987V30.4C285.987 35.2 283.487 40.8 281.787 45.3L284.387 46.3C286.087 41.8 287.487 35.3 291.287 32.4Z" fill="black"/>
</svg>
