<svg width="374" height="196" viewBox="0 0 374 196" fill="none" xmlns="http://www.w3.org/2000/svg">
<path fill-rule="evenodd" clip-rule="evenodd" d="M26.8066 3C18.4066 3 10.7066 9.3 10.5066 18.9V23H0.606641V34.7H10.5066V72.7H26.2066V34.7H38.7066V23H26.2066V18.9C26.2066 16.5 28.1066 15.1 32.8066 15.1H40.0066V3H26.8066ZM40.0012 47.7C40.0012 62.6 52.0012 74.6 74.0012 74.6C91.2012 74.6 99.3012 63.9 100.801 58.7H82.4012C81.4012 60.1 78.0012 61.6 72.5012 61.6C63.9012 61.6 59.7012 56.6 59.7012 52.2L101.901 52.3V47.9C102.001 33.9 90.3012 21.5 71.4012 21.5C53.0012 21.5 40.0012 32.8 40.0012 47.7ZM83.1012 43H59.7012C59.7012 37.7 64.7012 33.2 71.8012 33.2C78.8012 33.2 83.1012 37.2 83.1012 43ZM104.205 0.499998V60.9C104.205 68.1 111.805 73 124.005 73H132.505V58.4H127.005C122.105 58.4 120.005 57.3 120.005 53.1V0.499998H104.205ZM50.1852 114.95L34.8852 83H4.88516L42.0852 153.35L38.1852 160.1C33.9852 167.15 29.9352 171.8 21.0852 171.8H7.58516V195.5H33.2352C45.0852 195.5 53.9352 185.6 60.9852 171.05C62.4042 168.212 63.7184 165.741 65.0517 163.234C65.9734 161.501 66.9042 159.751 67.8852 157.85L106.285 83H76.2852L61.1352 114.95C57.8352 121.85 57.6852 131.75 57.6852 139.4H53.4852C53.4852 131.75 53.3352 121.85 50.1852 114.95ZM107.831 120.05C107.831 142.4 125.831 160.4 158.831 160.4C184.631 160.4 196.781 144.35 199.031 136.55H171.431C169.931 138.65 164.831 140.9 156.581 140.9C143.681 140.9 137.381 133.4 137.381 126.8L198.306 126.944C201.152 145.989 215.703 160.4 235.299 160.4C245.349 160.4 252.849 156.65 258.099 150.5C260.154 148.137 260.872 144.506 261.554 141.055C261.868 139.469 262.174 137.92 262.599 136.55L266.499 137.75C266.094 139.22 265.5 140.793 264.891 142.405C263.698 145.563 262.449 148.871 262.449 151.85L262.599 158H286.149V83H262.599L262.449 88.55C262.449 91.8369 263.873 95.4236 265.185 98.7273C265.729 100.097 266.253 101.419 266.649 102.65L262.599 104C262.174 102.629 261.868 101.065 261.554 99.4613C260.872 95.9771 260.154 92.31 258.099 90.05C252.699 84.2 245.199 80.75 235.299 80.75C217.074 80.75 203.212 92.4888 199.073 109.31C194.144 93.2421 178.164 80.75 154.931 80.75C127.331 80.75 107.831 97.7 107.831 120.05ZM155.531 98.3C166.031 98.3 172.481 104.3 172.481 113H137.381C137.381 105.05 144.881 98.3 155.531 98.3ZM237.249 138.5C228.699 138.5 221.349 129.95 221.349 120.05C221.349 110 228.699 102.65 237.249 102.65C247.899 102.65 253.449 110.3 253.449 120.05C253.449 130.25 245.799 138.5 237.249 138.5ZM347.226 80.75C338.526 80.75 331.926 81.95 326.226 85.85C321.559 89.4405 319.087 96.4688 316.907 102.668C316.355 104.238 315.822 105.755 315.276 107.15L311.526 105.65C311.783 104.995 312.048 104.324 312.32 103.639C314.904 97.1101 317.976 89.3521 317.976 82.7V49.1H294.276V158H317.976V123.65C317.976 110.75 326.376 104.9 336.576 104.9C345.876 104.9 350.226 110.6 350.226 123.65V158H373.926V106.55C373.926 89.45 362.376 80.75 347.226 80.75Z" fill="white"/>
</svg>
