<svg width="420" height="290" viewBox="0 0 420 290" fill="none" xmlns="http://www.w3.org/2000/svg">
<path d="M35.0078 115L50.6078 173.8C51.8078 178.2 50.0078 184 49.8078 188.6H55.4078C55.4078 184.2 53.6078 178.2 54.8078 173.8L71.2078 115H105.208L121.808 173.8C123.008 178.2 121.208 184.2 121.208 188.6H126.608C126.608 184 124.608 178.2 125.808 173.8L141.608 115H174.008L139.208 215H105.208L89.8078 141.6C88.8078 137.4 91.0078 131.4 91.0078 127H85.6078C85.6078 131.4 87.6078 137.4 86.8078 141.6L71.2078 215H37.4078L2.60781 115H35.0078ZM254.77 205C247.77 213.2 237.77 218.2 224.37 218.2C195.17 218.2 174.37 194.2 174.37 164.4C174.37 134.6 195.17 112 224.37 112C237.57 112 247.57 116.6 254.77 124.4C258.77 128.8 258.97 137.2 260.77 143L266.17 141.2C264.37 135.6 260.57 128.6 260.57 122.4L260.77 115H292.17V215H260.77L260.57 206.8C260.57 200.8 264.37 193.8 265.97 188L260.77 186.4C258.97 192.2 258.77 200.4 254.77 205ZM205.77 164.4C205.77 177.6 215.57 189 226.97 189C238.37 189 248.57 178 248.57 164.4C248.57 151.4 241.17 141.2 226.97 141.2C215.57 141.2 205.77 151 205.77 164.4ZM373.356 205C366.356 213.2 356.356 218.2 342.956 218.2C313.756 218.2 292.956 194.2 292.956 164.4C292.956 134.6 313.756 112 342.956 112C356.156 112 366.156 116.6 373.356 124.4C377.356 128.8 377.556 137.2 379.356 143L384.756 141.2C382.956 135.6 379.156 128.6 379.156 122.4L379.356 115H410.756V215H379.356L379.156 206.8C379.156 200.8 382.956 193.8 384.556 188L379.356 186.4C377.556 192.2 377.356 200.4 373.356 205ZM324.356 164.4C324.356 177.6 334.156 189 345.556 189C356.956 189 367.156 178 367.156 164.4C367.156 151.4 359.756 141.2 345.556 141.2C334.156 141.2 324.356 151 324.356 164.4Z" fill="black"/>
<path d="M12.6945 60.1V43.2H2.69453V29.9H12.6945V8.8H28.3945V29.9H41.3945V43.2H28.3945V60.1C28.3945 64.2 30.2945 65.4 34.9945 65.4H40.8945V80H25.9945C14.8945 80 12.6945 68.5 12.6945 60.1ZM66.3563 32.7C72.2563 29.2 78.6563 28.5 87.4563 28.5V43.1C74.3563 43.1 60.1563 48 60.1563 61.8V80H44.4563V30H60.1563C60.1563 29.9 60.1563 29.9 60.1563 29.8V30C60.0563 34.8 57.5563 40.4 55.4563 44.7L57.9563 45.9C60.0563 41.5 62.2563 35.3 66.3563 32.7ZM109.775 30L119.975 51.3C122.075 55.9 122.175 62.5 122.175 67.6H124.975C124.975 62.5 125.075 55.9 127.275 51.3L137.375 30H157.375L131.775 79.9C130.175 83 128.775 85.5 127.175 88.7C122.475 98.4 116.575 105 108.675 105H91.575V89.2H100.575C106.475 89.2 109.175 86.1 111.975 81.4L114.575 76.9L89.775 30H109.775Z" fill="black"/>
<path d="M144.285 282.9C140.585 274.65 137.835 270.4 137.685 261.7C137.535 253 140.435 248 144.385 239.25H151.885C147.935 248 144.685 253.1 144.835 261.7C144.985 270.25 148.135 274.65 151.835 282.9H144.285ZM153.442 262.4C153.442 253.75 158.892 249.25 167.242 249.25C176.042 249.25 181.142 254.25 181.592 260.25H173.042C173.142 260.8 172.092 256.6 166.992 256.65C163.742 256.65 161.242 258.5 161.242 262.3C161.192 266.05 163.492 268.35 166.942 268.35C171.842 268.4 173.342 264.2 173.192 264.7H181.742C180.842 271.15 175.642 275.8 167.292 275.8C158.692 275.8 153.442 270.95 153.442 262.4ZM182.958 268.95V238.75H190.858V265.05C190.858 267.15 191.908 267.7 194.358 267.7H197.108V275H192.858C186.758 275 182.958 272.55 182.958 268.95ZM200.752 247.75V240H209.102V247.75H200.752ZM201.052 275V250H208.852V275H201.052ZM210.692 262.4C210.692 253.75 216.142 249.25 224.492 249.25C233.292 249.25 238.392 254.25 238.842 260.25H230.292C230.392 260.8 229.342 256.6 224.242 256.65C220.992 256.65 218.492 258.5 218.492 262.3C218.442 266.05 220.742 268.35 224.192 268.35C229.092 268.4 230.592 264.2 230.442 264.7H238.992C238.092 271.15 232.892 275.8 224.542 275.8C215.942 275.8 210.692 270.95 210.692 262.4ZM251.508 255.15L257.258 250.05H266.608L256.108 259.7L269.208 275.05H259.708L250.908 264.05L248.458 266L248.608 275H240.708V238.75H248.608V253.85C248.608 256.2 247.358 258.85 246.408 260.95L247.658 261.55C248.608 259.4 249.758 256.7 251.508 255.15ZM278.022 282.9H270.372C274.122 274.6 277.372 269.75 277.472 261.55C277.622 253.35 274.272 247.95 270.322 239.25H277.972C281.872 247.95 284.672 253.3 284.572 261.55C284.422 269.85 281.722 274.6 278.022 282.9Z" fill="black"/>
</svg>
