<svg width="535" height="245" viewBox="0 0 535 245" fill="none" xmlns="http://www.w3.org/2000/svg">
<path d="M13.9996 118.25V95H39.0496V118.25H13.9996ZM14.8996 200V125H38.2996V200H14.8996ZM121.218 173.45C121.218 186.95 109.518 202.4 82.218 202.4C50.418 202.4 43.668 183.05 43.668 171.5H67.368C67.368 173.9 70.668 180.35 85.518 180.35C96.318 180.35 97.218 175.7 97.218 174.8C97.218 165.05 43.818 170.15 43.818 145.4C43.818 133.7 54.018 122.75 81.168 122.75C114.468 122.75 120.018 140.15 119.868 148.55H96.168C96.168 144.95 91.218 141.05 79.368 141.05C73.668 141.05 67.368 141.65 67.368 144.95C67.368 152.15 121.218 143.45 121.218 173.45ZM169.028 170.15V144.8H154.028V124.85H169.028V93.2H192.578V124.85H212.078V144.8H192.578V170.15C192.578 176.3 195.428 178.1 202.478 178.1H211.328V200H188.978C172.328 200 169.028 182.75 169.028 170.15ZM248.621 127.85C254.321 123.95 260.921 122.75 269.621 122.75C284.771 122.75 296.321 131.45 296.321 148.55V200H272.621V165.65C272.621 152.6 268.271 146.9 258.971 146.9C248.771 146.9 240.371 152.75 240.371 165.65V200H216.671V91.1H240.371V124.7C240.371 132.05 236.621 140.75 233.921 147.65L237.671 149.15C240.371 142.25 242.771 132.35 248.621 127.85ZM361.009 192.5C355.759 198.65 348.259 202.4 338.209 202.4C316.309 202.4 300.709 184.4 300.709 162.05C300.709 139.7 316.309 122.75 338.209 122.75C348.109 122.75 355.609 126.2 361.009 132.05C364.009 135.35 364.159 141.65 365.509 146L369.559 144.65C368.209 140.45 365.359 135.2 365.359 130.55L365.509 125H389.059V200H365.509L365.359 193.85C365.359 189.35 368.209 184.1 369.409 179.75L365.509 178.55C364.159 182.9 364.009 189.05 361.009 192.5ZM324.259 162.05C324.259 171.95 331.609 180.5 340.159 180.5C348.709 180.5 356.359 172.25 356.359 162.05C356.359 152.3 350.809 144.65 340.159 144.65C331.609 144.65 324.259 152 324.259 162.05ZM409.186 170.15V144.8H394.186V124.85H409.186V93.2H432.736V124.85H452.236V144.8H432.736V170.15C432.736 176.3 435.586 178.1 442.636 178.1H451.486V200H429.136C412.486 200 409.186 182.75 409.186 170.15ZM474.829 124.1H453.529C453.829 116.75 455.929 92.75 488.779 92.75C509.479 92.75 523.129 102.95 523.129 120.35C523.129 144.2 495.679 140.45 495.679 161.15V177.35H475.129V162.35C475.129 133.55 500.629 131.15 500.629 119.75C500.629 114.2 497.329 110.75 492.679 110.75C479.929 110.75 475.279 119.9 474.829 124.1ZM496.129 202.25H474.829V186.5H496.129V202.25Z" fill="black"/>
<path d="M17.8574 30L25.6574 59.4C26.2574 61.6 25.3574 64.5 25.2574 66.8H28.0574C28.0574 64.6 27.1574 61.6 27.7574 59.4L35.9574 30H52.9574L61.2574 59.4C61.8574 61.6 60.9574 64.6 60.9574 66.8H63.6574C63.6574 64.5 62.6574 61.6 63.2574 59.4L71.1574 30H87.3574L69.9574 80H52.9574L45.2574 43.3C44.7574 41.2 45.8574 38.2 45.8574 36H43.1574C43.1574 38.2 44.1574 41.2 43.7574 43.3L35.9574 80H19.0574L1.65742 30H17.8574ZM127.739 75C124.239 79.1 119.239 81.6 112.539 81.6C97.9387 81.6 87.5387 69.6 87.5387 54.7C87.5387 39.8 97.9387 28.5 112.539 28.5C119.139 28.5 124.139 30.8 127.739 34.7C129.739 36.9 129.839 41.1 130.739 44L133.439 43.1C132.539 40.3 130.639 36.8 130.639 33.7L130.739 30H146.439V80H130.739L130.639 75.9C130.639 72.9 132.539 69.4 133.339 66.5L130.739 65.7C129.839 68.6 129.739 72.7 127.739 75ZM103.239 54.7C103.239 61.3 108.139 67 113.839 67C119.539 67 124.639 61.5 124.639 54.7C124.639 48.2 120.939 43.1 113.839 43.1C108.139 43.1 103.239 48 103.239 54.7ZM187.032 75C183.532 79.1 178.532 81.6 171.832 81.6C157.232 81.6 146.832 69.6 146.832 54.7C146.832 39.8 157.232 28.5 171.832 28.5C178.432 28.5 183.432 30.8 187.032 34.7C189.032 36.9 189.132 41.1 190.032 44L192.732 43.1C191.832 40.3 189.932 36.8 189.932 33.7L190.032 30H205.732V80H190.032L189.932 75.9C189.932 72.9 191.832 69.4 192.632 66.5L190.032 65.7C189.132 68.6 189.032 72.7 187.032 75ZM162.532 54.7C162.532 61.3 167.432 67 173.132 67C178.832 67 183.932 61.5 183.932 54.7C183.932 48.2 180.232 43.1 173.132 43.1C167.432 43.1 162.532 48 162.532 54.7ZM246.325 75C242.825 79.1 237.825 81.6 231.125 81.6C216.525 81.6 206.125 69.6 206.125 54.7C206.125 39.8 216.525 28.5 231.125 28.5C237.725 28.5 242.725 30.8 246.325 34.7C248.325 36.9 248.425 41.1 249.325 44L252.025 43.1C251.125 40.3 249.225 36.8 249.225 33.7L249.325 30H265.025V80H249.325L249.225 75.9C249.225 72.9 251.125 69.4 251.925 66.5L249.325 65.7C248.425 68.6 248.325 72.7 246.325 75ZM221.825 54.7C221.825 61.3 226.725 67 232.425 67C238.125 67 243.225 61.5 243.225 54.7C243.225 48.2 239.525 43.1 232.425 43.1C226.725 43.1 221.825 48 221.825 54.7Z" fill="black"/>
</svg>
