<svg width="22" height="22" viewBox="0 0 22 22" fill="none" xmlns="http://www.w3.org/2000/svg">
<path d="M12.6918 3.11905C12.5767 3.47695 12.351 3.78908 12.0472 4.01051C11.7433 4.23194 11.3771 4.35125 11.0011 4.35125C10.6252 4.35125 10.2589 4.23194 9.95512 4.01051C9.65131 3.78908 9.4256 3.47695 9.31049 3.11905L8.57805 0.911682L0.972656 4.71438V11.3566H3.98271V21.3901H18.0296V11.3566H21.0397V4.71438L13.4343 0.911682L12.6918 3.11905ZM14.5981 3.75116L19.033 5.95853V9.34985H16.0229V19.3834H5.98941V9.34985H2.97936V5.95853L7.41416 3.74113C7.66361 4.49682 8.14504 5.15458 8.78994 5.62083C9.43484 6.08708 10.2104 6.33806 11.0062 6.33806C11.8019 6.33806 12.5775 6.08708 13.2224 5.62083C13.8673 5.15458 14.3487 4.49682 14.5981 3.74113V3.75116Z" fill="black"/>
<path d="M15.014 9.34991H12.0039V11.3566H15.014V9.34991Z" fill="black"/>
</svg>
