<svg width="26" height="26" viewBox="0 0 26 26" fill="none" xmlns="http://www.w3.org/2000/svg">
<g clip-path="url(#clip0_2176_1474)">
<path d="M3.1013 0.0180518L22.7814 0C24.4809 0.20579 25.8231 1.57321 26 3.28001V22.7137C25.8249 24.4376 24.4448 25.8213 22.7164 25.9973H3.28362C1.58043 25.8276 0.14983 24.425 0 22.7137L0.00270777 3.21502C0.203083 1.57682 1.47393 0.27529 3.1013 0.0180518ZM11.5107 1.48927H3.15094C2.47851 1.48927 1.47664 2.58502 1.49288 3.28362L1.49018 22.5792C1.39721 23.3247 2.44331 24.5053 3.15184 24.5053H11.5116V1.48927H11.5107ZM13 24.5053H22.8491C23.5215 24.5053 24.5234 23.4096 24.5071 22.711L24.5098 3.4154C24.6028 2.66986 23.5567 1.48927 22.8482 1.48927H12.9991V24.5053H13Z" fill="#171717"/>
<path d="M3.43459 4.34689L9.50902 4.33606C10.3448 4.46152 10.3809 5.71251 9.24186 5.82172C7.48993 5.9896 5.47715 5.70258 3.69815 5.8154C2.79556 5.78833 2.55908 4.62128 3.4355 4.34779L3.43459 4.34689Z" fill="#171717"/>
<path d="M3.50742 10.1018L9.44285 10.0919C10.349 10.2525 10.3238 11.4773 9.38147 11.5757C7.56365 11.7662 5.4182 11.4367 3.56518 11.5694C2.71494 11.4557 2.67884 10.2832 3.50742 10.1018Z" fill="#171717"/>
<path d="M3.63966 7.19271C4.98271 7.26672 6.56495 7.03025 7.88002 7.18188C8.83406 7.292 8.97396 8.34261 8.08672 8.66123H3.49073C2.59265 8.46627 2.74068 7.25228 3.63966 7.19271Z" fill="#171717"/>
<path d="M3.43432 13.0117L8.08717 13C8.969 13.3123 8.83993 14.3683 7.88048 14.4793C6.95803 14.5859 4.61942 14.5859 3.69697 14.4793C2.66531 14.3602 2.65538 13.1715 3.43432 13.0117Z" fill="#171717"/>
</g>
<defs>
<clipPath id="clip0_2176_1474">
<rect width="26" height="25.9973" fill="white"/>
</clipPath>
</defs>
</svg>
