<svg width="28" height="29" viewBox="0 0 28 29" fill="none" xmlns="http://www.w3.org/2000/svg">
<g clip-path="url(#clip0_2195_1321)">
<path d="M14.1802 1.29749C14.4325 1.47205 14.5498 1.65753 14.4762 1.97734C14.4489 2.09668 13.8331 2.77722 13.6933 3.03566C13.497 3.40048 13.364 3.80212 13.3115 4.21263C14.3705 3.13181 15.7875 2.35853 17.3238 2.26715C17.8455 2.23579 18.7578 2.18055 18.5049 2.98793C18.4667 3.10999 17.9716 3.58391 17.8421 3.75643C17.6989 3.94805 17.0647 4.94704 17.199 5.13252C18.4926 4.74929 19.975 4.6886 21.2775 5.06773C21.5264 5.14002 22.2192 5.38073 22.3644 5.56621C22.957 6.32312 21.3034 6.64225 21.1363 7.27983C22.3692 7.42781 23.718 7.97401 24.3672 9.08756C25.2284 10.5652 24.0372 10.3375 23.0457 10.8523C22.6849 11.0399 22.3017 11.301 22.0569 11.6277C23.0163 11.8827 24.0215 12.2652 24.7913 12.9083C25.2291 13.2738 26.2493 14.3703 25.9369 14.9717C25.8933 15.0549 25.6935 15.2083 25.611 15.2083H22.6706C22.7777 16.596 22.4804 17.8678 21.896 19.1136C21.6955 19.5418 21.3293 20.4972 20.7306 20.1399C20.1476 19.7914 20.8547 18.9377 21.0422 18.5163C22.8956 14.356 20.318 9.58058 16.0323 8.42134C11.1853 7.11004 6.62745 10.6259 6.28173 15.5186L3.81051 18.8272C3.77164 18.954 3.78664 19.1436 3.93666 19.1879C4.39149 19.3216 5.59846 19.0106 5.92441 19.3489C6.25036 19.6871 6.03965 20.7822 6.10034 21.2446H7.04682C7.55143 21.2446 7.55143 22.2674 7.04682 22.2674H6.10034C6.20194 22.8682 5.76757 23.8249 6.63564 23.906C7.50984 23.9879 8.59816 23.7894 9.44576 23.9088C9.70284 23.9449 9.93605 24.1863 9.93605 24.4413V26.4611H18.1189C18.1128 26.0274 18.1271 25.5883 18.17 25.1573C18.2069 24.787 18.3098 23.9074 18.4503 23.5964C18.6958 23.0536 19.3852 23.2078 19.45 23.7744C19.3545 24.247 19.242 24.7284 19.1929 25.2085C19.1363 25.7622 19.1977 26.3697 19.1356 26.89C19.1015 27.1798 19.0054 27.3653 18.7319 27.484H9.27051C9.07413 27.4151 8.86137 27.1512 8.86137 26.9466V24.9268H6.33014C6.25922 24.9268 5.86986 24.7557 5.78598 24.7039C5.35093 24.4372 5.02634 23.8787 5.02634 23.3666V20.2217H3.82346C3.74232 20.2217 3.37545 20.0478 3.28953 19.9885C2.71537 19.5903 2.60831 18.8177 2.95813 18.2319C3.53911 17.2581 4.79381 16.1275 5.27319 15.177C5.42798 14.8701 5.48867 13.9905 5.60187 13.5622C6.00692 12.032 6.85385 10.6457 7.98103 9.54785C7.69941 7.6767 8.0049 5.89011 9.12595 4.35105C10.2675 2.78335 12.0343 1.92484 13.8222 1.29749H14.1802ZM16.8397 3.39502C15.812 3.52459 14.7523 4.17512 14.0513 4.92794C13.8447 5.15024 13.2897 6.02581 13.109 6.08173C12.1952 6.36608 12.2416 4.56653 12.2941 4.0401C12.3336 3.64392 12.5157 3.26955 12.5941 2.88291C10.2579 3.90304 8.68408 6.09332 8.91251 8.71319C9.36394 8.51067 9.7608 8.20381 10.2075 7.98833C14.1127 6.10355 18.809 7.39985 21.2141 10.9635L21.2904 10.9396C21.8435 10.3054 22.5949 9.88402 23.3859 9.60717C23.4712 9.55739 23.3934 9.48716 23.3566 9.4326C22.8234 8.6375 21.583 8.37633 20.7006 8.25291C20.419 8.21336 19.9628 8.3286 19.868 7.90923C19.7234 7.27029 20.4067 6.60202 20.7524 6.15605C20.792 6.10491 20.8513 6.09059 20.8288 6.00263C19.8209 5.76873 18.7674 5.80283 17.7602 6.02717C17.1158 6.17037 16.1543 6.79909 16.0739 5.72032C16.0166 4.95045 16.4182 4.01965 16.8403 3.39434L16.8397 3.39502ZM24.6134 14.1855C24.0051 13.4102 23.062 13.0249 22.1592 12.7023L22.5165 14.1855H24.6134Z" fill="black"/>
<path d="M15.9049 23.5779C14.8636 24.5988 13.0497 24.2121 12.5594 22.8422C12.2526 21.9857 12.4988 21.0665 13.2052 20.4951C12.9788 20.1439 12.7238 19.179 13.3007 19.0535C14.1565 18.868 13.733 20.0675 14.4654 20.0675C15.045 20.0675 14.9379 19.4838 15.0157 19.134C15.298 17.8527 16.0897 17.3324 16.6604 16.3293C17.343 15.1298 16.524 13.8622 15.1425 14.0954C14.6433 14.1799 14.1101 15.0494 13.6819 14.407C13.227 13.7244 14.5956 13.1148 15.1309 13.0609C16.8323 12.8898 18.104 14.1315 17.9124 15.8424C17.7896 16.9382 16.7231 17.7252 16.2533 18.6839C15.9478 19.3072 16.0719 19.882 15.7242 20.4603C15.7207 20.5039 16.1067 20.8721 16.1701 20.9703C16.6877 21.7695 16.5895 22.9069 15.9049 23.5779ZM14.2731 21.1019C13.0422 21.3086 13.2652 23.3025 14.6147 23.1306C15.9069 22.9663 15.673 20.8667 14.2731 21.1019Z" fill="black"/>
<path d="M8.64843 14.043C8.87141 13.9925 10.3341 14.0007 10.5591 14.0545C11.0671 14.1752 11.059 14.9683 10.4746 15.0508C10.1766 15.0924 8.93074 15.0972 8.66002 15.0331C8.15473 14.9137 8.2011 14.1439 8.64843 14.043Z" fill="black"/>
<path d="M19.5936 21.1539C20.4665 20.9295 20.4828 22.2565 19.6973 22.1542C19.1559 22.084 19.1265 21.2739 19.5936 21.1539Z" fill="black"/>
</g>
<defs>
<clipPath id="clip0_2195_1321">
<rect width="23.2366" height="26.1851" fill="white" transform="translate(2.76172 1.29749)"/>
</clipPath>
</defs>
</svg>
