<svg width="28" height="28" viewBox="0 0 28 28" fill="none" xmlns="http://www.w3.org/2000/svg">
<path d="M13.8061 24.3878C19.4354 24.3878 23.9989 19.8243 23.9989 14.195C23.9989 8.56567 19.4354 4.0022 13.8061 4.0022C8.17676 4.0022 3.61328 8.56567 3.61328 14.195C3.61328 19.8243 8.17676 24.3878 13.8061 24.3878Z" stroke="#1F1F1F" stroke-width="1.67179"/>
<path d="M17.5589 18.4868C17.1529 18.8953 16.5989 19.2317 15.9464 19.4657C15.2938 19.6997 14.5629 19.8241 13.8191 19.8278C13.0752 19.8316 12.3416 19.7145 11.6836 19.487C11.0256 19.2596 10.4639 18.9288 10.0484 18.5244M3.91016 12.598C5.50927 14.3311 8.40559 13.2721 8.50955 10.9162L8.59906 8.88789L9.91815 9.7123C13.283 11.8153 17.7295 10.2409 19.0212 6.48907L19.1575 6.09308" stroke="#1F1F1F" stroke-width="1.67179" stroke-linecap="round" stroke-linejoin="round"/>
</svg>
