<svg width="17" height="15" viewBox="0 0 17 15" fill="none" xmlns="http://www.w3.org/2000/svg">
<g clip-path="url(#clip0_2887_937)">
<path d="M6.09363 2.29613H5.32276C5.30352 2.29613 5.031 2.46587 4.99664 2.49861C4.72059 2.76276 4.77242 3.13587 4.76978 3.48328C0.206045 4.0107 -1.61983 9.7613 1.90829 12.8027C3.20145 13.9174 4.34426 14.0484 5.98145 14.0553C8.99257 14.0681 12.0037 14.0493 15.0148 14.0584C15.4569 13.9673 15.6234 13.6158 15.6544 13.2003C15.6873 12.7589 15.6522 12.2495 15.6085 11.8108H16.4234C16.5827 11.8108 16.9181 11.4141 16.9545 11.2406C17.0116 10.9687 17.0051 9.84191 16.9322 9.58421C16.87 9.36514 16.5627 9.03579 16.3353 9.03579H15.6085C15.6833 8.47327 15.6738 7.8808 15.6085 7.31784H16.3353C16.5626 7.31784 16.87 6.98849 16.9322 6.76941C17.0013 6.52538 17.0134 5.36392 16.9551 5.1124C16.9104 4.9199 16.5789 4.54283 16.3793 4.54283H15.6085C15.6738 3.97987 15.6833 3.38739 15.6085 2.82487H16.3353C16.6232 2.82487 16.9402 2.47189 16.975 2.18718C17.0106 1.89718 17.0119 0.844383 16.9546 0.575677C16.907 0.352784 16.7518 0.195965 16.5661 0.0829036L6.61063 0.0599976C5.8007 0.206978 6.17836 1.72113 6.09363 2.29613ZM6.73236 0.578173H16.4014C16.4322 0.829846 16.5121 2.05914 16.4238 2.20847C16.3878 2.26955 16.2718 2.28908 16.2039 2.29686C15.7258 2.35119 15.2245 2.25589 14.7515 2.24987C12.0671 2.21596 9.37992 2.27807 6.6955 2.25384C6.64264 2.2415 6.62664 2.10378 6.62209 2.05429C6.60535 1.86855 6.59786 0.767295 6.64485 0.667008C6.65439 0.646745 6.71768 0.582285 6.73221 0.578173H6.73236ZM5.35521 2.8792L5.58515 2.82297L14.9248 2.82561C15.0412 2.8447 15.1038 2.96216 15.1214 3.0695C15.1541 3.26919 15.1528 4.05196 15.1214 4.25371C15.0951 4.42169 14.9643 4.53622 14.7946 4.54356L8.67291 4.54019C7.65418 3.87253 6.54471 3.42278 5.30058 3.44158L5.35535 2.8792H5.35521ZM5.66224 3.98295C9.11371 4.17751 11.2366 7.94996 9.59664 11.0189C7.84521 14.2964 3.10601 14.4059 1.24063 11.1797C-0.677746 7.86156 1.8569 3.76843 5.66224 3.98295ZM9.22119 5.07128H16.2912C16.3202 5.07128 16.4335 5.21298 16.4444 5.27054C16.4811 5.46274 16.4712 6.28986 16.4461 6.50379C16.4294 6.64681 16.3861 6.74284 16.2376 6.77984L10.2831 6.78424C10.0813 6.13627 9.64554 5.59063 9.22104 5.07143L9.22119 5.07128ZM10.4986 7.31784H14.9257C14.9445 7.31784 15.0361 7.38377 15.0547 7.40902C15.158 7.54807 15.1605 8.76151 15.0713 8.91715C15.049 8.95621 14.9583 9.03579 14.9257 9.03579H10.6748C10.7077 8.45169 10.6387 7.88256 10.4986 7.31784ZM16.2912 11.2823H10.0581C10.3567 10.7451 10.5114 10.1545 10.6578 9.56175L16.2718 9.58377C16.332 9.6033 16.3865 9.64926 16.413 9.70697C16.4604 9.81048 16.473 10.9345 16.4445 11.0831C16.4334 11.1418 16.3332 11.2707 16.2914 11.2823H16.2912ZM14.9697 13.5289H7.76754L8.78128 12.8467C9.10504 12.5466 9.43792 12.2475 9.67109 11.8648L14.9614 11.8637C15.0172 11.8804 15.0687 11.9466 15.0906 11.9987C15.1453 12.1293 15.1493 13.109 15.1216 13.2843C15.1104 13.3549 15.0311 13.5116 14.9699 13.529L14.9697 13.5289Z" fill="#171717"/>
<path d="M5.88463 4.86395C1.57095 4.42507 -0.210435 9.99975 3.33516 12.1268C6.19489 13.8422 9.7374 11.469 9.26136 8.18283C9.01967 6.51407 7.58438 5.03692 5.88463 4.86395ZM5.84131 5.39182C7.05196 5.52793 8.21796 6.51216 8.59386 7.66098C9.50731 10.4535 6.77694 13.0322 4.05376 11.8927C0.497009 10.4044 1.82908 4.94074 5.84131 5.39182Z" fill="#171717"/>
<path d="M4.54006 7.92279C4.23949 8.12601 3.67037 8.31469 3.40827 8.53112C2.84178 8.99894 4.3019 9.37043 4.52758 9.61079C4.70187 9.79639 5.08687 10.7853 5.2431 10.8333C5.35748 10.8684 5.47642 10.8565 5.56658 10.7774C5.74351 10.6222 5.98138 9.96202 6.1451 9.72606C6.36168 9.41389 7.38614 9.08116 7.45119 8.87325C7.49553 8.73155 7.45383 8.64081 7.34958 8.55095C7.08542 8.32321 6.43143 8.13203 6.22468 7.91384C6.01559 7.69329 5.83807 7.13503 5.64587 6.8628C5.15926 6.17327 4.79085 7.61753 4.54021 7.92294L4.54006 7.92279ZM4.11145 8.72803C4.13759 8.69338 4.77162 8.43054 4.88292 8.33173C5.07601 8.16008 5.19905 7.70944 5.36659 7.49433C5.45322 7.53721 5.71517 8.18709 5.84424 8.31616C5.98388 8.4558 6.37255 8.58428 6.5649 8.71731C6.60337 8.74389 6.64668 8.71011 6.62216 8.81481C6.42115 8.90511 6.0012 9.07059 5.85026 9.21067C5.73426 9.3183 5.41534 10.0494 5.36688 10.0492C5.22666 9.8425 5.0901 9.42461 4.92858 9.25369C4.85502 9.17587 4.07328 8.77869 4.1116 8.72788L4.11145 8.72803Z" fill="#171717"/>
</g>
<defs>
<clipPath id="clip0_2887_937">
<rect width="16.9424" height="14" fill="white" transform="matrix(-1 0 0 1 17 0.0599976)"/>
</clipPath>
</defs>
</svg>
